<mxfile host="Electron" modified="2024-04-09T07:32:44.835Z" agent="Mozilla/5.0 (Windows NT 10.0; Win64; x64) AppleWebKit/537.36 (KHTML, like Gecko) draw.io/24.1.0 Chrome/120.0.6099.109 Electron/28.1.0 Safari/537.36" etag="rYWxHJe_wL3PeowNyQDj" version="24.1.0" type="device">
  <diagram name="Page-1" id="s3pG4ZLfdRDDi63NhGxU">
    <mxGraphModel dx="3585" dy="2390" grid="1" gridSize="10" guides="1" tooltips="1" connect="1" arrows="1" fold="1" page="1" pageScale="1" pageWidth="850" pageHeight="1100" math="0" shadow="0">
      <root>
        <mxCell id="0" />
        <mxCell id="1" parent="0" />
        <mxCell id="0TIpxywI-svsfsxsPYix-1" value="" style="group;fontFamily=Times New Roman;fontSize=25;fillColor=default;container=0;" vertex="1" connectable="0" parent="1">
          <mxGeometry width="610" height="629" as="geometry" />
        </mxCell>
        <mxCell id="0TIpxywI-svsfsxsPYix-2" value="&lt;font style=&quot;&quot;&gt;&lt;i style=&quot;font-size: 25px;&quot;&gt;x&lt;/i&gt;&lt;sub style=&quot;&quot;&gt;&lt;font style=&quot;font-size: 20px;&quot;&gt;4&lt;/font&gt;&lt;/sub&gt;&lt;/font&gt;" style="text;html=1;strokeColor=none;fillColor=none;align=center;verticalAlign=middle;whiteSpace=wrap;rounded=0;fontFamily=Times New Roman;fontSize=25;" vertex="1" parent="1">
          <mxGeometry x="235" y="599" width="30" height="30" as="geometry" />
        </mxCell>
        <mxCell id="0TIpxywI-svsfsxsPYix-3" value="&lt;font style=&quot;&quot;&gt;&lt;span style=&quot;font-size: 25px; font-style: italic;&quot;&gt;x&lt;/span&gt;&lt;sub style=&quot;&quot;&gt;&lt;font style=&quot;font-size: 20px;&quot;&gt;3&lt;/font&gt;&lt;/sub&gt;&lt;/font&gt;" style="text;html=1;strokeColor=none;fillColor=none;align=center;verticalAlign=middle;whiteSpace=wrap;rounded=0;fontFamily=Times New Roman;fontSize=25;" vertex="1" parent="1">
          <mxGeometry x="125" y="599" width="30" height="30" as="geometry" />
        </mxCell>
        <mxCell id="0TIpxywI-svsfsxsPYix-4" value="" style="edgeStyle=orthogonalEdgeStyle;rounded=0;orthogonalLoop=1;jettySize=auto;html=1;fontFamily=Times New Roman;fontSize=25;" edge="1" parent="1" source="0TIpxywI-svsfsxsPYix-3">
          <mxGeometry relative="1" as="geometry">
            <mxPoint x="140" y="569" as="targetPoint" />
          </mxGeometry>
        </mxCell>
        <mxCell id="0TIpxywI-svsfsxsPYix-5" value="" style="group;fontFamily=Times New Roman;fontSize=25;fontColor=#FFFFFF;" vertex="1" connectable="0" parent="1">
          <mxGeometry x="210" y="489" width="80" height="80" as="geometry" />
        </mxCell>
        <mxCell id="0TIpxywI-svsfsxsPYix-6" value="" style="ellipse;whiteSpace=wrap;html=1;aspect=fixed;fontFamily=Times New Roman;fontSize=25;fontColor=#FFFFFF;" vertex="1" parent="0TIpxywI-svsfsxsPYix-5">
          <mxGeometry width="80" height="80" as="geometry" />
        </mxCell>
        <mxCell id="0TIpxywI-svsfsxsPYix-7" value="" style="endArrow=none;html=1;rounded=0;edgeStyle=orthogonalEdgeStyle;curved=1;fontFamily=Times New Roman;fontSize=25;fontColor=#FFFFFF;" edge="1" parent="0TIpxywI-svsfsxsPYix-5">
          <mxGeometry width="50" height="50" relative="1" as="geometry">
            <mxPoint x="55" y="55" as="sourcePoint" />
            <mxPoint x="25" y="55" as="targetPoint" />
            <Array as="points">
              <mxPoint x="45" y="55" />
              <mxPoint x="45" y="25" />
              <mxPoint x="35" y="25" />
              <mxPoint x="35" y="55" />
            </Array>
          </mxGeometry>
        </mxCell>
        <mxCell id="0TIpxywI-svsfsxsPYix-8" value="" style="edgeStyle=orthogonalEdgeStyle;rounded=0;orthogonalLoop=1;jettySize=auto;html=1;fontFamily=Times New Roman;fontSize=25;" edge="1" parent="1" source="0TIpxywI-svsfsxsPYix-2" target="0TIpxywI-svsfsxsPYix-6">
          <mxGeometry relative="1" as="geometry" />
        </mxCell>
        <mxCell id="0TIpxywI-svsfsxsPYix-9" value="" style="shape=sumEllipse;perimeter=ellipsePerimeter;whiteSpace=wrap;html=1;backgroundOutline=1;fontFamily=Times New Roman;fontSize=25;fontColor=#FFFFFF;" vertex="1" parent="1">
          <mxGeometry x="100" y="369" width="80" height="80" as="geometry" />
        </mxCell>
        <mxCell id="0TIpxywI-svsfsxsPYix-10" value="&lt;font style=&quot;&quot;&gt;&lt;i style=&quot;font-size: 25px;&quot;&gt;x&lt;/i&gt;&lt;sub style=&quot;&quot;&gt;&lt;font style=&quot;font-size: 20px;&quot;&gt;4&lt;/font&gt;&lt;/sub&gt;&lt;/font&gt;" style="text;html=1;strokeColor=none;fillColor=none;align=center;verticalAlign=middle;whiteSpace=wrap;rounded=0;fontFamily=Times New Roman;fontSize=25;" vertex="1" parent="1">
          <mxGeometry x="455" y="599" width="30" height="30" as="geometry" />
        </mxCell>
        <mxCell id="0TIpxywI-svsfsxsPYix-11" value="&lt;font style=&quot;&quot;&gt;&lt;i style=&quot;font-size: 25px;&quot;&gt;x&lt;/i&gt;&lt;sub style=&quot;&quot;&gt;&lt;font style=&quot;font-size: 20px;&quot;&gt;3&lt;/font&gt;&lt;/sub&gt;&lt;/font&gt;" style="text;html=1;strokeColor=none;fillColor=none;align=center;verticalAlign=middle;whiteSpace=wrap;rounded=0;fontFamily=Times New Roman;fontSize=25;" vertex="1" parent="1">
          <mxGeometry x="345" y="599" width="30" height="30" as="geometry" />
        </mxCell>
        <mxCell id="0TIpxywI-svsfsxsPYix-12" value="" style="edgeStyle=orthogonalEdgeStyle;rounded=0;orthogonalLoop=1;jettySize=auto;html=1;fontFamily=Times New Roman;fontSize=25;" edge="1" parent="1" source="0TIpxywI-svsfsxsPYix-11">
          <mxGeometry relative="1" as="geometry">
            <mxPoint x="360" y="569" as="targetPoint" />
          </mxGeometry>
        </mxCell>
        <mxCell id="0TIpxywI-svsfsxsPYix-13" value="" style="group;fontFamily=Times New Roman;fontSize=25;fontColor=#FFFFFF;" vertex="1" connectable="0" parent="1">
          <mxGeometry x="430" y="489" width="80" height="80" as="geometry" />
        </mxCell>
        <mxCell id="0TIpxywI-svsfsxsPYix-14" value="" style="ellipse;whiteSpace=wrap;html=1;aspect=fixed;fontFamily=Times New Roman;fontSize=25;fontColor=#FFFFFF;" vertex="1" parent="0TIpxywI-svsfsxsPYix-13">
          <mxGeometry width="80" height="80" as="geometry" />
        </mxCell>
        <mxCell id="0TIpxywI-svsfsxsPYix-15" value="" style="endArrow=none;html=1;rounded=0;edgeStyle=orthogonalEdgeStyle;curved=1;fontFamily=Times New Roman;fontSize=25;fontColor=#FFFFFF;" edge="1" parent="0TIpxywI-svsfsxsPYix-13">
          <mxGeometry width="50" height="50" relative="1" as="geometry">
            <mxPoint x="55" y="55" as="sourcePoint" />
            <mxPoint x="25" y="55" as="targetPoint" />
            <Array as="points">
              <mxPoint x="45" y="55" />
              <mxPoint x="45" y="25" />
              <mxPoint x="35" y="25" />
              <mxPoint x="35" y="55" />
            </Array>
          </mxGeometry>
        </mxCell>
        <mxCell id="0TIpxywI-svsfsxsPYix-16" value="" style="shape=sumEllipse;perimeter=ellipsePerimeter;whiteSpace=wrap;html=1;backgroundOutline=1;fontFamily=Times New Roman;fontSize=25;fontColor=#FFFFFF;" vertex="1" parent="1">
          <mxGeometry x="430" y="369" width="80" height="80" as="geometry" />
        </mxCell>
        <mxCell id="0TIpxywI-svsfsxsPYix-17" value="" style="edgeStyle=orthogonalEdgeStyle;rounded=0;orthogonalLoop=1;jettySize=auto;html=1;fontFamily=Times New Roman;fontSize=25;" edge="1" parent="1" source="0TIpxywI-svsfsxsPYix-10" target="0TIpxywI-svsfsxsPYix-14">
          <mxGeometry relative="1" as="geometry" />
        </mxCell>
        <mxCell id="0TIpxywI-svsfsxsPYix-18" value="" style="shape=orEllipse;perimeter=ellipsePerimeter;whiteSpace=wrap;html=1;backgroundOutline=1;fontFamily=Times New Roman;fontSize=25;fontColor=#FFFFFF;" vertex="1" parent="1">
          <mxGeometry x="210" y="249" width="80" height="80" as="geometry" />
        </mxCell>
        <mxCell id="0TIpxywI-svsfsxsPYix-19" value="" style="edgeStyle=orthogonalEdgeStyle;rounded=0;orthogonalLoop=1;jettySize=auto;html=1;fontFamily=Times New Roman;fontSize=25;fontColor=#FFFFFF;" edge="1" parent="1" source="0TIpxywI-svsfsxsPYix-20" target="0TIpxywI-svsfsxsPYix-18">
          <mxGeometry relative="1" as="geometry" />
        </mxCell>
        <mxCell id="0TIpxywI-svsfsxsPYix-20" value="" style="shape=sumEllipse;perimeter=ellipsePerimeter;whiteSpace=wrap;html=1;backgroundOutline=1;fontFamily=Times New Roman;fontSize=25;fontColor=#FFFFFF;" vertex="1" parent="1">
          <mxGeometry x="210" y="369" width="80" height="80" as="geometry" />
        </mxCell>
        <mxCell id="0TIpxywI-svsfsxsPYix-21" value="" style="shape=sumEllipse;perimeter=ellipsePerimeter;whiteSpace=wrap;html=1;backgroundOutline=1;fontFamily=Times New Roman;fontSize=25;fontColor=#FFFFFF;" vertex="1" parent="1">
          <mxGeometry x="320" y="369" width="80" height="80" as="geometry" />
        </mxCell>
        <mxCell id="0TIpxywI-svsfsxsPYix-22" value="" style="shape=orEllipse;perimeter=ellipsePerimeter;whiteSpace=wrap;html=1;backgroundOutline=1;fontFamily=Times New Roman;fontSize=25;fontColor=#FFFFFF;" vertex="1" parent="1">
          <mxGeometry x="320" y="249" width="80" height="80" as="geometry" />
        </mxCell>
        <mxCell id="0TIpxywI-svsfsxsPYix-23" value="" style="rounded=0;orthogonalLoop=1;jettySize=auto;html=1;entryX=0;entryY=1;entryDx=0;entryDy=0;fontFamily=Times New Roman;fontSize=25;fontColor=#FFFFFF;" edge="1" parent="1" source="0TIpxywI-svsfsxsPYix-9" target="0TIpxywI-svsfsxsPYix-18">
          <mxGeometry relative="1" as="geometry">
            <mxPoint x="200" y="249" as="targetPoint" />
          </mxGeometry>
        </mxCell>
        <mxCell id="0TIpxywI-svsfsxsPYix-24" value="" style="edgeStyle=orthogonalEdgeStyle;rounded=0;orthogonalLoop=1;jettySize=auto;html=1;fontFamily=Times New Roman;fontSize=25;fontColor=#FFFFFF;" edge="1" parent="1" source="0TIpxywI-svsfsxsPYix-14" target="0TIpxywI-svsfsxsPYix-16">
          <mxGeometry relative="1" as="geometry" />
        </mxCell>
        <mxCell id="0TIpxywI-svsfsxsPYix-25" value="" style="edgeStyle=orthogonalEdgeStyle;rounded=0;orthogonalLoop=1;jettySize=auto;html=1;fontFamily=Times New Roman;fontSize=25;fontColor=#FFFFFF;" edge="1" parent="1" target="0TIpxywI-svsfsxsPYix-9">
          <mxGeometry relative="1" as="geometry">
            <mxPoint x="140" y="489" as="sourcePoint" />
          </mxGeometry>
        </mxCell>
        <mxCell id="0TIpxywI-svsfsxsPYix-26" value="" style="rounded=0;orthogonalLoop=1;jettySize=auto;html=1;entryX=1;entryY=1;entryDx=0;entryDy=0;fontFamily=Times New Roman;fontSize=25;fontColor=#FFFFFF;" edge="1" parent="1" source="0TIpxywI-svsfsxsPYix-6" target="0TIpxywI-svsfsxsPYix-9">
          <mxGeometry relative="1" as="geometry" />
        </mxCell>
        <mxCell id="0TIpxywI-svsfsxsPYix-27" value="" style="edgeStyle=orthogonalEdgeStyle;rounded=0;orthogonalLoop=1;jettySize=auto;html=1;fontFamily=Times New Roman;fontSize=25;fontColor=#FFFFFF;" edge="1" parent="1" source="0TIpxywI-svsfsxsPYix-6" target="0TIpxywI-svsfsxsPYix-20">
          <mxGeometry relative="1" as="geometry" />
        </mxCell>
        <mxCell id="0TIpxywI-svsfsxsPYix-28" value="" style="rounded=0;orthogonalLoop=1;jettySize=auto;html=1;entryX=1;entryY=1;entryDx=0;entryDy=0;fontFamily=Times New Roman;fontSize=25;fontColor=#FFFFFF;" edge="1" parent="1" source="0TIpxywI-svsfsxsPYix-16" target="0TIpxywI-svsfsxsPYix-22">
          <mxGeometry relative="1" as="geometry">
            <mxPoint x="470" y="248.99999999999977" as="targetPoint" />
          </mxGeometry>
        </mxCell>
        <mxCell id="0TIpxywI-svsfsxsPYix-29" value="" style="rounded=0;orthogonalLoop=1;jettySize=auto;html=1;entryX=0;entryY=1;entryDx=0;entryDy=0;fontFamily=Times New Roman;fontSize=25;fontColor=#FFFFFF;" edge="1" parent="1" target="0TIpxywI-svsfsxsPYix-16">
          <mxGeometry relative="1" as="geometry">
            <mxPoint x="386.5949266331975" y="499.12174909109876" as="sourcePoint" />
          </mxGeometry>
        </mxCell>
        <mxCell id="0TIpxywI-svsfsxsPYix-30" value="" style="edgeStyle=orthogonalEdgeStyle;rounded=0;orthogonalLoop=1;jettySize=auto;html=1;fontFamily=Times New Roman;fontSize=25;fontColor=#FFFFFF;" edge="1" parent="1" source="0TIpxywI-svsfsxsPYix-21" target="0TIpxywI-svsfsxsPYix-22">
          <mxGeometry relative="1" as="geometry" />
        </mxCell>
        <mxCell id="0TIpxywI-svsfsxsPYix-31" value="" style="rounded=0;orthogonalLoop=1;jettySize=auto;html=1;entryX=1;entryY=1;entryDx=0;entryDy=0;fontFamily=Times New Roman;fontSize=25;fontColor=#FFFFFF;" edge="1" parent="1" source="0TIpxywI-svsfsxsPYix-14" target="0TIpxywI-svsfsxsPYix-21">
          <mxGeometry relative="1" as="geometry">
            <mxPoint x="630" y="529" as="targetPoint" />
          </mxGeometry>
        </mxCell>
        <mxCell id="0TIpxywI-svsfsxsPYix-32" value="" style="rounded=0;orthogonalLoop=1;jettySize=auto;html=1;entryX=0;entryY=1;entryDx=0;entryDy=0;fontFamily=Times New Roman;fontSize=25;fontColor=#FFFFFF;" edge="1" parent="1" target="0TIpxywI-svsfsxsPYix-21">
          <mxGeometry relative="1" as="geometry">
            <mxPoint x="-20" y="529" as="targetPoint" />
            <mxPoint x="176.11092532270573" y="511.79531830174756" as="sourcePoint" />
          </mxGeometry>
        </mxCell>
        <mxCell id="0TIpxywI-svsfsxsPYix-33" value="" style="rounded=0;orthogonalLoop=1;jettySize=auto;html=1;entryX=1;entryY=1;entryDx=0;entryDy=0;fontFamily=Times New Roman;fontSize=25;fontColor=#FFFFFF;" edge="1" parent="1" target="0TIpxywI-svsfsxsPYix-20">
          <mxGeometry relative="1" as="geometry">
            <mxPoint x="333.4050733668025" y="499.1217490910992" as="sourcePoint" />
          </mxGeometry>
        </mxCell>
        <mxCell id="0TIpxywI-svsfsxsPYix-34" value="" style="shape=sumEllipse;perimeter=ellipsePerimeter;whiteSpace=wrap;html=1;backgroundOutline=1;fontFamily=Times New Roman;fontSize=25;fontColor=#FFFFFF;" vertex="1" parent="1">
          <mxGeometry x="210" y="122" width="80" height="80" as="geometry" />
        </mxCell>
        <mxCell id="0TIpxywI-svsfsxsPYix-35" value="" style="edgeStyle=orthogonalEdgeStyle;rounded=0;orthogonalLoop=1;jettySize=auto;html=1;fontFamily=Times New Roman;fontSize=25;fontColor=#FFFFFF;" edge="1" parent="1" source="0TIpxywI-svsfsxsPYix-18" target="0TIpxywI-svsfsxsPYix-34">
          <mxGeometry relative="1" as="geometry" />
        </mxCell>
        <mxCell id="0TIpxywI-svsfsxsPYix-36" value="" style="shape=sumEllipse;perimeter=ellipsePerimeter;whiteSpace=wrap;html=1;backgroundOutline=1;fontFamily=Times New Roman;fontSize=25;fontColor=#FFFFFF;" vertex="1" parent="1">
          <mxGeometry x="320" y="122" width="80" height="80" as="geometry" />
        </mxCell>
        <mxCell id="0TIpxywI-svsfsxsPYix-37" value="" style="edgeStyle=orthogonalEdgeStyle;rounded=0;orthogonalLoop=1;jettySize=auto;html=1;fontFamily=Times New Roman;fontSize=25;fontColor=#FFFFFF;" edge="1" parent="1" source="0TIpxywI-svsfsxsPYix-22" target="0TIpxywI-svsfsxsPYix-36">
          <mxGeometry relative="1" as="geometry" />
        </mxCell>
        <mxCell id="0TIpxywI-svsfsxsPYix-38" value="" style="group;fontFamily=Times New Roman;fontSize=25;fontColor=#FFFFFF;" vertex="1" connectable="0" parent="1">
          <mxGeometry x="462" y="249" width="80" height="80" as="geometry" />
        </mxCell>
        <mxCell id="0TIpxywI-svsfsxsPYix-39" value="" style="ellipse;whiteSpace=wrap;html=1;aspect=fixed;fontFamily=Times New Roman;fontSize=25;fontColor=#FFFFFF;" vertex="1" parent="0TIpxywI-svsfsxsPYix-38">
          <mxGeometry width="80" height="80" as="geometry" />
        </mxCell>
        <mxCell id="0TIpxywI-svsfsxsPYix-40" value="" style="endArrow=none;html=1;rounded=0;edgeStyle=orthogonalEdgeStyle;curved=1;fontFamily=Times New Roman;fontSize=25;fontColor=#FFFFFF;" edge="1" parent="0TIpxywI-svsfsxsPYix-38">
          <mxGeometry width="50" height="50" relative="1" as="geometry">
            <mxPoint x="55" y="55" as="sourcePoint" />
            <mxPoint x="25" y="55" as="targetPoint" />
            <Array as="points">
              <mxPoint x="45" y="55" />
              <mxPoint x="45" y="25" />
              <mxPoint x="35" y="25" />
              <mxPoint x="35" y="55" />
            </Array>
          </mxGeometry>
        </mxCell>
        <mxCell id="0TIpxywI-svsfsxsPYix-41" value="" style="group;fontFamily=Times New Roman;fontSize=25;fontColor=#FFFFFF;" vertex="1" connectable="0" parent="1">
          <mxGeometry x="70" y="249" width="80" height="80" as="geometry" />
        </mxCell>
        <mxCell id="0TIpxywI-svsfsxsPYix-42" value="" style="ellipse;whiteSpace=wrap;html=1;aspect=fixed;fontFamily=Times New Roman;fontSize=25;fontColor=#FFFFFF;" vertex="1" parent="0TIpxywI-svsfsxsPYix-41">
          <mxGeometry width="80" height="80" as="geometry" />
        </mxCell>
        <mxCell id="0TIpxywI-svsfsxsPYix-43" value="" style="endArrow=none;html=1;rounded=0;edgeStyle=orthogonalEdgeStyle;curved=1;fontFamily=Times New Roman;fontSize=25;fontColor=#FFFFFF;" edge="1" parent="0TIpxywI-svsfsxsPYix-41">
          <mxGeometry width="50" height="50" relative="1" as="geometry">
            <mxPoint x="55" y="55" as="sourcePoint" />
            <mxPoint x="25" y="55" as="targetPoint" />
            <Array as="points">
              <mxPoint x="45" y="55" />
              <mxPoint x="45" y="25" />
              <mxPoint x="35" y="25" />
              <mxPoint x="35" y="55" />
            </Array>
          </mxGeometry>
        </mxCell>
        <mxCell id="0TIpxywI-svsfsxsPYix-44" value="" style="shape=orEllipse;perimeter=ellipsePerimeter;whiteSpace=wrap;html=1;backgroundOutline=1;fontFamily=Times New Roman;fontSize=25;fontColor=#FFFFFF;" vertex="1" parent="1">
          <mxGeometry x="265" width="80" height="80" as="geometry" />
        </mxCell>
        <mxCell id="0TIpxywI-svsfsxsPYix-45" value="" style="rounded=0;orthogonalLoop=1;jettySize=auto;html=1;entryX=1;entryY=1;entryDx=0;entryDy=0;fontFamily=Times New Roman;fontSize=25;fontColor=#FFFFFF;" edge="1" parent="1" source="0TIpxywI-svsfsxsPYix-39" target="0TIpxywI-svsfsxsPYix-36">
          <mxGeometry relative="1" as="geometry" />
        </mxCell>
        <mxCell id="0TIpxywI-svsfsxsPYix-46" value="" style="edgeStyle=orthogonalEdgeStyle;rounded=0;orthogonalLoop=1;jettySize=auto;html=1;fontFamily=Times New Roman;fontSize=25;fontColor=#FFFFFF;" edge="1" parent="1" target="0TIpxywI-svsfsxsPYix-36">
          <mxGeometry relative="1" as="geometry">
            <mxPoint x="462" y="162" as="sourcePoint" />
          </mxGeometry>
        </mxCell>
        <mxCell id="0TIpxywI-svsfsxsPYix-47" value="" style="rounded=0;orthogonalLoop=1;jettySize=auto;html=1;entryX=0;entryY=1;entryDx=0;entryDy=0;fontFamily=Times New Roman;fontSize=25;fontColor=#FFFFFF;" edge="1" parent="1" source="0TIpxywI-svsfsxsPYix-42" target="0TIpxywI-svsfsxsPYix-34">
          <mxGeometry relative="1" as="geometry" />
        </mxCell>
        <mxCell id="0TIpxywI-svsfsxsPYix-48" value="" style="rounded=0;orthogonalLoop=1;jettySize=auto;html=1;fontFamily=Times New Roman;fontSize=25;fontColor=#FFFFFF;" edge="1" parent="1" source="0TIpxywI-svsfsxsPYix-34" target="0TIpxywI-svsfsxsPYix-44">
          <mxGeometry relative="1" as="geometry" />
        </mxCell>
        <mxCell id="0TIpxywI-svsfsxsPYix-49" value="" style="edgeStyle=orthogonalEdgeStyle;rounded=0;orthogonalLoop=1;jettySize=auto;html=1;fontFamily=Times New Roman;fontSize=25;fontColor=#FFFFFF;" edge="1" parent="1" target="0TIpxywI-svsfsxsPYix-34">
          <mxGeometry relative="1" as="geometry">
            <mxPoint x="150" y="162" as="sourcePoint" />
          </mxGeometry>
        </mxCell>
        <mxCell id="0TIpxywI-svsfsxsPYix-50" value="" style="edgeStyle=orthogonalEdgeStyle;rounded=0;orthogonalLoop=1;jettySize=auto;html=1;fontFamily=Times New Roman;fontSize=25;" edge="1" parent="1" source="0TIpxywI-svsfsxsPYix-51" target="0TIpxywI-svsfsxsPYix-42">
          <mxGeometry relative="1" as="geometry" />
        </mxCell>
        <mxCell id="0TIpxywI-svsfsxsPYix-51" value="&lt;font style=&quot;&quot;&gt;&lt;i style=&quot;font-size: 25px;&quot;&gt;x&lt;/i&gt;&lt;sub style=&quot;&quot;&gt;&lt;font style=&quot;font-size: 20px;&quot;&gt;2&lt;/font&gt;&lt;/sub&gt;&lt;/font&gt;" style="text;html=1;strokeColor=none;fillColor=none;align=center;verticalAlign=middle;whiteSpace=wrap;rounded=0;fontFamily=Times New Roman;fontSize=25;" vertex="1" parent="1">
          <mxGeometry y="274" width="30" height="30" as="geometry" />
        </mxCell>
        <mxCell id="0TIpxywI-svsfsxsPYix-52" value="" style="edgeStyle=orthogonalEdgeStyle;rounded=0;orthogonalLoop=1;jettySize=auto;html=1;fontFamily=Times New Roman;fontSize=25;" edge="1" parent="1" source="0TIpxywI-svsfsxsPYix-53">
          <mxGeometry relative="1" as="geometry">
            <mxPoint x="70" y="162" as="targetPoint" />
          </mxGeometry>
        </mxCell>
        <mxCell id="0TIpxywI-svsfsxsPYix-53" value="&lt;font style=&quot;&quot;&gt;&lt;i style=&quot;font-size: 25px;&quot;&gt;x&lt;/i&gt;&lt;sub style=&quot;&quot;&gt;&lt;font style=&quot;font-size: 20px;&quot;&gt;1&lt;/font&gt;&lt;/sub&gt;&lt;/font&gt;" style="text;html=1;strokeColor=none;fillColor=none;align=center;verticalAlign=middle;whiteSpace=wrap;rounded=0;fontFamily=Times New Roman;fontSize=25;" vertex="1" parent="1">
          <mxGeometry y="147" width="30" height="30" as="geometry" />
        </mxCell>
        <mxCell id="0TIpxywI-svsfsxsPYix-54" value="" style="edgeStyle=orthogonalEdgeStyle;rounded=0;orthogonalLoop=1;jettySize=auto;html=1;fontFamily=Times New Roman;fontSize=25;" edge="1" parent="1" source="0TIpxywI-svsfsxsPYix-55" target="0TIpxywI-svsfsxsPYix-39">
          <mxGeometry relative="1" as="geometry" />
        </mxCell>
        <mxCell id="0TIpxywI-svsfsxsPYix-55" value="&lt;font style=&quot;&quot;&gt;&lt;i style=&quot;font-size: 25px;&quot;&gt;x&lt;/i&gt;&lt;sub style=&quot;&quot;&gt;&lt;font style=&quot;font-size: 20px;&quot;&gt;2&lt;/font&gt;&lt;/sub&gt;&lt;/font&gt;" style="text;html=1;strokeColor=none;fillColor=none;align=center;verticalAlign=middle;whiteSpace=wrap;rounded=0;fontFamily=Times New Roman;fontSize=25;" vertex="1" parent="1">
          <mxGeometry x="580" y="274" width="30" height="30" as="geometry" />
        </mxCell>
        <mxCell id="0TIpxywI-svsfsxsPYix-56" value="" style="edgeStyle=orthogonalEdgeStyle;rounded=0;orthogonalLoop=1;jettySize=auto;html=1;fontFamily=Times New Roman;fontSize=25;" edge="1" parent="1" source="0TIpxywI-svsfsxsPYix-57">
          <mxGeometry relative="1" as="geometry">
            <mxPoint x="542" y="162" as="targetPoint" />
          </mxGeometry>
        </mxCell>
        <mxCell id="0TIpxywI-svsfsxsPYix-57" value="&lt;font style=&quot;&quot;&gt;&lt;i style=&quot;font-size: 25px;&quot;&gt;x&lt;/i&gt;&lt;sub style=&quot;&quot;&gt;&lt;font style=&quot;font-size: 20px;&quot;&gt;1&lt;/font&gt;&lt;/sub&gt;&lt;/font&gt;" style="text;html=1;strokeColor=none;fillColor=none;align=center;verticalAlign=middle;whiteSpace=wrap;rounded=0;fontFamily=Times New Roman;fontSize=25;" vertex="1" parent="1">
          <mxGeometry x="580" y="147" width="30" height="30" as="geometry" />
        </mxCell>
        <mxCell id="0TIpxywI-svsfsxsPYix-58" value="" style="rounded=0;orthogonalLoop=1;jettySize=auto;html=1;fontFamily=Times New Roman;fontSize=25;fontColor=#FFFFFF;" edge="1" parent="1" source="0TIpxywI-svsfsxsPYix-36" target="0TIpxywI-svsfsxsPYix-44">
          <mxGeometry relative="1" as="geometry" />
        </mxCell>
        <mxCell id="0TIpxywI-svsfsxsPYix-59" value="" style="group;fontFamily=Times New Roman;fontSize=25;fontColor=#FFFFFF;" vertex="1" connectable="0" parent="1">
          <mxGeometry x="462" y="122" width="80" height="80" as="geometry" />
        </mxCell>
        <mxCell id="0TIpxywI-svsfsxsPYix-60" value="" style="ellipse;whiteSpace=wrap;html=1;aspect=fixed;fontFamily=Times New Roman;fontSize=25;fontColor=#FFFFFF;" vertex="1" parent="0TIpxywI-svsfsxsPYix-59">
          <mxGeometry width="80" height="80" as="geometry" />
        </mxCell>
        <mxCell id="0TIpxywI-svsfsxsPYix-61" value="" style="endArrow=none;html=1;rounded=0;edgeStyle=orthogonalEdgeStyle;curved=1;fontFamily=Times New Roman;fontSize=25;fontColor=#FFFFFF;" edge="1" parent="0TIpxywI-svsfsxsPYix-59">
          <mxGeometry width="50" height="50" relative="1" as="geometry">
            <mxPoint x="55" y="55" as="sourcePoint" />
            <mxPoint x="25" y="55" as="targetPoint" />
            <Array as="points">
              <mxPoint x="45" y="55" />
              <mxPoint x="45" y="25" />
              <mxPoint x="35" y="25" />
              <mxPoint x="35" y="55" />
            </Array>
          </mxGeometry>
        </mxCell>
        <mxCell id="0TIpxywI-svsfsxsPYix-62" value="" style="group;fontFamily=Times New Roman;fontSize=25;fontColor=#FFFFFF;" vertex="1" connectable="0" parent="1">
          <mxGeometry x="70" y="122" width="80" height="80" as="geometry" />
        </mxCell>
        <mxCell id="0TIpxywI-svsfsxsPYix-63" value="" style="ellipse;whiteSpace=wrap;html=1;aspect=fixed;fontFamily=Times New Roman;fontSize=25;fontColor=#FFFFFF;" vertex="1" parent="0TIpxywI-svsfsxsPYix-62">
          <mxGeometry width="80" height="80" as="geometry" />
        </mxCell>
        <mxCell id="0TIpxywI-svsfsxsPYix-64" value="" style="endArrow=none;html=1;rounded=0;edgeStyle=orthogonalEdgeStyle;curved=1;fontFamily=Times New Roman;fontSize=25;fontColor=#FFFFFF;" edge="1" parent="0TIpxywI-svsfsxsPYix-62">
          <mxGeometry width="50" height="50" relative="1" as="geometry">
            <mxPoint x="55" y="55" as="sourcePoint" />
            <mxPoint x="25" y="55" as="targetPoint" />
            <Array as="points">
              <mxPoint x="45" y="55" />
              <mxPoint x="45" y="25" />
              <mxPoint x="35" y="25" />
              <mxPoint x="35" y="55" />
            </Array>
          </mxGeometry>
        </mxCell>
        <mxCell id="0TIpxywI-svsfsxsPYix-65" value="" style="group;fontFamily=Times New Roman;fontSize=25;fontColor=#FFFFFF;" vertex="1" connectable="0" parent="1">
          <mxGeometry x="320" y="489" width="80" height="80" as="geometry" />
        </mxCell>
        <mxCell id="0TIpxywI-svsfsxsPYix-66" value="" style="ellipse;whiteSpace=wrap;html=1;aspect=fixed;fontFamily=Times New Roman;fontSize=25;fontColor=#FFFFFF;" vertex="1" parent="0TIpxywI-svsfsxsPYix-65">
          <mxGeometry width="80" height="80" as="geometry" />
        </mxCell>
        <mxCell id="0TIpxywI-svsfsxsPYix-67" value="" style="endArrow=none;html=1;rounded=0;edgeStyle=orthogonalEdgeStyle;curved=1;fontFamily=Times New Roman;fontSize=25;fontColor=#FFFFFF;" edge="1" parent="0TIpxywI-svsfsxsPYix-65">
          <mxGeometry width="50" height="50" relative="1" as="geometry">
            <mxPoint x="55" y="55" as="sourcePoint" />
            <mxPoint x="25" y="55" as="targetPoint" />
            <Array as="points">
              <mxPoint x="45" y="55" />
              <mxPoint x="45" y="25" />
              <mxPoint x="35" y="25" />
              <mxPoint x="35" y="55" />
            </Array>
          </mxGeometry>
        </mxCell>
        <mxCell id="0TIpxywI-svsfsxsPYix-68" value="" style="group;fontFamily=Times New Roman;fontSize=25;fontColor=#FFFFFF;" vertex="1" connectable="0" parent="1">
          <mxGeometry x="100" y="489" width="80" height="80" as="geometry" />
        </mxCell>
        <mxCell id="0TIpxywI-svsfsxsPYix-69" value="" style="ellipse;whiteSpace=wrap;html=1;aspect=fixed;fontFamily=Times New Roman;fontSize=25;fontColor=#FFFFFF;" vertex="1" parent="0TIpxywI-svsfsxsPYix-68">
          <mxGeometry width="80" height="80" as="geometry" />
        </mxCell>
        <mxCell id="0TIpxywI-svsfsxsPYix-70" value="" style="endArrow=none;html=1;rounded=0;edgeStyle=orthogonalEdgeStyle;curved=1;fontFamily=Times New Roman;fontSize=25;fontColor=#FFFFFF;" edge="1" parent="0TIpxywI-svsfsxsPYix-68">
          <mxGeometry width="50" height="50" relative="1" as="geometry">
            <mxPoint x="55" y="55" as="sourcePoint" />
            <mxPoint x="25" y="55" as="targetPoint" />
            <Array as="points">
              <mxPoint x="45" y="55" />
              <mxPoint x="45" y="25" />
              <mxPoint x="35" y="25" />
              <mxPoint x="35" y="55" />
            </Array>
          </mxGeometry>
        </mxCell>
        <mxCell id="0TIpxywI-svsfsxsPYix-71" value="" style="group;fontFamily=Times New Roman;fontSize=25;fillColor=default;" vertex="1" connectable="0" parent="1">
          <mxGeometry x="650" width="610" height="629" as="geometry" />
        </mxCell>
        <mxCell id="0TIpxywI-svsfsxsPYix-72" value="&lt;font style=&quot;&quot;&gt;&lt;i style=&quot;font-size: 25px;&quot;&gt;x&lt;/i&gt;&lt;sub style=&quot;&quot;&gt;&lt;font style=&quot;font-size: 20px;&quot;&gt;4&lt;/font&gt;&lt;/sub&gt;&lt;/font&gt;" style="text;html=1;strokeColor=none;fillColor=none;align=center;verticalAlign=middle;whiteSpace=wrap;rounded=0;fontFamily=Times New Roman;fontSize=25;" vertex="1" parent="0TIpxywI-svsfsxsPYix-71">
          <mxGeometry x="235" y="599" width="30" height="30" as="geometry" />
        </mxCell>
        <mxCell id="0TIpxywI-svsfsxsPYix-73" value="&lt;font style=&quot;&quot;&gt;&lt;span style=&quot;font-size: 25px; font-style: italic;&quot;&gt;x&lt;/span&gt;&lt;sub style=&quot;&quot;&gt;&lt;font style=&quot;font-size: 20px;&quot;&gt;3&lt;/font&gt;&lt;/sub&gt;&lt;/font&gt;" style="text;html=1;strokeColor=none;fillColor=none;align=center;verticalAlign=middle;whiteSpace=wrap;rounded=0;fontFamily=Times New Roman;fontSize=25;" vertex="1" parent="0TIpxywI-svsfsxsPYix-71">
          <mxGeometry x="125" y="599" width="30" height="30" as="geometry" />
        </mxCell>
        <mxCell id="0TIpxywI-svsfsxsPYix-74" value="" style="group;fontFamily=Times New Roman;fontSize=25;fontColor=#FFFFFF;" vertex="1" connectable="0" parent="0TIpxywI-svsfsxsPYix-71">
          <mxGeometry x="100" y="489" width="80" height="80" as="geometry" />
        </mxCell>
        <mxCell id="0TIpxywI-svsfsxsPYix-75" value="1.0" style="ellipse;whiteSpace=wrap;html=1;aspect=fixed;fontFamily=Times New Roman;fontSize=25;fontColor=#ffffff;fillColor=#008a00;strokeColor=#005700;" vertex="1" parent="0TIpxywI-svsfsxsPYix-74">
          <mxGeometry width="80" height="80" as="geometry" />
        </mxCell>
        <mxCell id="0TIpxywI-svsfsxsPYix-76" value="" style="edgeStyle=orthogonalEdgeStyle;rounded=0;orthogonalLoop=1;jettySize=auto;html=1;fontFamily=Times New Roman;fontSize=25;" edge="1" parent="0TIpxywI-svsfsxsPYix-71" source="0TIpxywI-svsfsxsPYix-73" target="0TIpxywI-svsfsxsPYix-75">
          <mxGeometry relative="1" as="geometry" />
        </mxCell>
        <mxCell id="0TIpxywI-svsfsxsPYix-77" value="" style="group;fontFamily=Times New Roman;fontSize=25;fontColor=#FFFFFF;" vertex="1" connectable="0" parent="0TIpxywI-svsfsxsPYix-71">
          <mxGeometry x="210" y="489" width="80" height="80" as="geometry" />
        </mxCell>
        <mxCell id="0TIpxywI-svsfsxsPYix-78" value="" style="ellipse;whiteSpace=wrap;html=1;aspect=fixed;fontFamily=Times New Roman;fontSize=25;fontColor=#FFFFFF;" vertex="1" parent="0TIpxywI-svsfsxsPYix-77">
          <mxGeometry width="80" height="80" as="geometry" />
        </mxCell>
        <mxCell id="0TIpxywI-svsfsxsPYix-79" value="" style="endArrow=none;html=1;rounded=0;edgeStyle=orthogonalEdgeStyle;curved=1;fontFamily=Times New Roman;fontSize=25;fontColor=#FFFFFF;" edge="1" parent="0TIpxywI-svsfsxsPYix-77">
          <mxGeometry width="50" height="50" relative="1" as="geometry">
            <mxPoint x="55" y="55" as="sourcePoint" />
            <mxPoint x="25" y="55" as="targetPoint" />
            <Array as="points">
              <mxPoint x="45" y="55" />
              <mxPoint x="45" y="25" />
              <mxPoint x="35" y="25" />
              <mxPoint x="35" y="55" />
            </Array>
          </mxGeometry>
        </mxCell>
        <mxCell id="0TIpxywI-svsfsxsPYix-80" value="" style="edgeStyle=orthogonalEdgeStyle;rounded=0;orthogonalLoop=1;jettySize=auto;html=1;fontFamily=Times New Roman;fontSize=25;" edge="1" parent="0TIpxywI-svsfsxsPYix-71" source="0TIpxywI-svsfsxsPYix-72" target="0TIpxywI-svsfsxsPYix-78">
          <mxGeometry relative="1" as="geometry" />
        </mxCell>
        <mxCell id="0TIpxywI-svsfsxsPYix-81" value="" style="shape=sumEllipse;perimeter=ellipsePerimeter;whiteSpace=wrap;html=1;backgroundOutline=1;fontFamily=Times New Roman;fontSize=25;fontColor=#FFFFFF;" vertex="1" parent="0TIpxywI-svsfsxsPYix-71">
          <mxGeometry x="100" y="369" width="80" height="80" as="geometry" />
        </mxCell>
        <mxCell id="0TIpxywI-svsfsxsPYix-82" value="&lt;font style=&quot;&quot;&gt;&lt;i style=&quot;font-size: 25px;&quot;&gt;x&lt;/i&gt;&lt;sub style=&quot;&quot;&gt;&lt;font style=&quot;font-size: 20px;&quot;&gt;4&lt;/font&gt;&lt;/sub&gt;&lt;/font&gt;" style="text;html=1;strokeColor=none;fillColor=none;align=center;verticalAlign=middle;whiteSpace=wrap;rounded=0;fontFamily=Times New Roman;fontSize=25;" vertex="1" parent="0TIpxywI-svsfsxsPYix-71">
          <mxGeometry x="455" y="599" width="30" height="30" as="geometry" />
        </mxCell>
        <mxCell id="0TIpxywI-svsfsxsPYix-83" value="&lt;font style=&quot;&quot;&gt;&lt;i style=&quot;font-size: 25px;&quot;&gt;x&lt;/i&gt;&lt;sub style=&quot;&quot;&gt;&lt;font style=&quot;font-size: 20px;&quot;&gt;3&lt;/font&gt;&lt;/sub&gt;&lt;/font&gt;" style="text;html=1;strokeColor=none;fillColor=none;align=center;verticalAlign=middle;whiteSpace=wrap;rounded=0;fontFamily=Times New Roman;fontSize=25;" vertex="1" parent="0TIpxywI-svsfsxsPYix-71">
          <mxGeometry x="345" y="599" width="30" height="30" as="geometry" />
        </mxCell>
        <mxCell id="0TIpxywI-svsfsxsPYix-84" value="" style="group;fontFamily=Times New Roman;fontSize=25;fontColor=#FFFFFF;" vertex="1" connectable="0" parent="0TIpxywI-svsfsxsPYix-71">
          <mxGeometry x="320" y="489" width="80" height="80" as="geometry" />
        </mxCell>
        <mxCell id="0TIpxywI-svsfsxsPYix-85" value="1.0" style="ellipse;whiteSpace=wrap;html=1;aspect=fixed;fontFamily=Times New Roman;fontSize=25;fontColor=#ffffff;fillColor=#008a00;strokeColor=#005700;" vertex="1" parent="0TIpxywI-svsfsxsPYix-84">
          <mxGeometry width="80" height="80" as="geometry" />
        </mxCell>
        <mxCell id="0TIpxywI-svsfsxsPYix-86" value="" style="edgeStyle=orthogonalEdgeStyle;rounded=0;orthogonalLoop=1;jettySize=auto;html=1;fontFamily=Times New Roman;fontSize=25;" edge="1" parent="0TIpxywI-svsfsxsPYix-71" source="0TIpxywI-svsfsxsPYix-83" target="0TIpxywI-svsfsxsPYix-85">
          <mxGeometry relative="1" as="geometry" />
        </mxCell>
        <mxCell id="0TIpxywI-svsfsxsPYix-87" value="" style="group;fontFamily=Times New Roman;fontSize=25;fontColor=#FFFFFF;" vertex="1" connectable="0" parent="0TIpxywI-svsfsxsPYix-71">
          <mxGeometry x="430" y="489" width="80" height="80" as="geometry" />
        </mxCell>
        <mxCell id="0TIpxywI-svsfsxsPYix-88" value="" style="ellipse;whiteSpace=wrap;html=1;aspect=fixed;fontFamily=Times New Roman;fontSize=25;fontColor=#FFFFFF;" vertex="1" parent="0TIpxywI-svsfsxsPYix-87">
          <mxGeometry width="80" height="80" as="geometry" />
        </mxCell>
        <mxCell id="0TIpxywI-svsfsxsPYix-89" value="" style="endArrow=none;html=1;rounded=0;edgeStyle=orthogonalEdgeStyle;curved=1;fontFamily=Times New Roman;fontSize=25;fontColor=#FFFFFF;" edge="1" parent="0TIpxywI-svsfsxsPYix-87">
          <mxGeometry width="50" height="50" relative="1" as="geometry">
            <mxPoint x="55" y="55" as="sourcePoint" />
            <mxPoint x="25" y="55" as="targetPoint" />
            <Array as="points">
              <mxPoint x="45" y="55" />
              <mxPoint x="45" y="25" />
              <mxPoint x="35" y="25" />
              <mxPoint x="35" y="55" />
            </Array>
          </mxGeometry>
        </mxCell>
        <mxCell id="0TIpxywI-svsfsxsPYix-90" value="" style="shape=sumEllipse;perimeter=ellipsePerimeter;whiteSpace=wrap;html=1;backgroundOutline=1;fontFamily=Times New Roman;fontSize=25;fontColor=#FFFFFF;" vertex="1" parent="0TIpxywI-svsfsxsPYix-71">
          <mxGeometry x="430" y="369" width="80" height="80" as="geometry" />
        </mxCell>
        <mxCell id="0TIpxywI-svsfsxsPYix-91" value="" style="edgeStyle=orthogonalEdgeStyle;rounded=0;orthogonalLoop=1;jettySize=auto;html=1;fontFamily=Times New Roman;fontSize=25;" edge="1" parent="0TIpxywI-svsfsxsPYix-71" source="0TIpxywI-svsfsxsPYix-82" target="0TIpxywI-svsfsxsPYix-88">
          <mxGeometry relative="1" as="geometry" />
        </mxCell>
        <mxCell id="0TIpxywI-svsfsxsPYix-92" value="" style="shape=orEllipse;perimeter=ellipsePerimeter;whiteSpace=wrap;html=1;backgroundOutline=1;fontFamily=Times New Roman;fontSize=25;fontColor=#FFFFFF;" vertex="1" parent="0TIpxywI-svsfsxsPYix-71">
          <mxGeometry x="210" y="249" width="80" height="80" as="geometry" />
        </mxCell>
        <mxCell id="0TIpxywI-svsfsxsPYix-93" value="" style="edgeStyle=orthogonalEdgeStyle;rounded=0;orthogonalLoop=1;jettySize=auto;html=1;fontFamily=Times New Roman;fontSize=25;fontColor=#FFFFFF;" edge="1" parent="0TIpxywI-svsfsxsPYix-71" source="0TIpxywI-svsfsxsPYix-94" target="0TIpxywI-svsfsxsPYix-92">
          <mxGeometry relative="1" as="geometry" />
        </mxCell>
        <mxCell id="0TIpxywI-svsfsxsPYix-94" value="" style="shape=sumEllipse;perimeter=ellipsePerimeter;whiteSpace=wrap;html=1;backgroundOutline=1;fontFamily=Times New Roman;fontSize=25;fontColor=#FFFFFF;" vertex="1" parent="0TIpxywI-svsfsxsPYix-71">
          <mxGeometry x="210" y="369" width="80" height="80" as="geometry" />
        </mxCell>
        <mxCell id="0TIpxywI-svsfsxsPYix-95" value="" style="shape=sumEllipse;perimeter=ellipsePerimeter;whiteSpace=wrap;html=1;backgroundOutline=1;fontFamily=Times New Roman;fontSize=25;fontColor=#FFFFFF;" vertex="1" parent="0TIpxywI-svsfsxsPYix-71">
          <mxGeometry x="320" y="369" width="80" height="80" as="geometry" />
        </mxCell>
        <mxCell id="0TIpxywI-svsfsxsPYix-96" value="" style="shape=orEllipse;perimeter=ellipsePerimeter;whiteSpace=wrap;html=1;backgroundOutline=1;fontFamily=Times New Roman;fontSize=25;fontColor=#FFFFFF;" vertex="1" parent="0TIpxywI-svsfsxsPYix-71">
          <mxGeometry x="320" y="249" width="80" height="80" as="geometry" />
        </mxCell>
        <mxCell id="0TIpxywI-svsfsxsPYix-97" value="" style="rounded=0;orthogonalLoop=1;jettySize=auto;html=1;entryX=0;entryY=1;entryDx=0;entryDy=0;fontFamily=Times New Roman;fontSize=25;fontColor=#FFFFFF;" edge="1" parent="0TIpxywI-svsfsxsPYix-71" source="0TIpxywI-svsfsxsPYix-81" target="0TIpxywI-svsfsxsPYix-92">
          <mxGeometry relative="1" as="geometry">
            <mxPoint x="200" y="249" as="targetPoint" />
          </mxGeometry>
        </mxCell>
        <mxCell id="0TIpxywI-svsfsxsPYix-98" value="" style="edgeStyle=orthogonalEdgeStyle;rounded=0;orthogonalLoop=1;jettySize=auto;html=1;fontFamily=Times New Roman;fontSize=25;fontColor=#FFFFFF;" edge="1" parent="0TIpxywI-svsfsxsPYix-71" source="0TIpxywI-svsfsxsPYix-88" target="0TIpxywI-svsfsxsPYix-90">
          <mxGeometry relative="1" as="geometry" />
        </mxCell>
        <mxCell id="0TIpxywI-svsfsxsPYix-99" value="" style="edgeStyle=orthogonalEdgeStyle;rounded=0;orthogonalLoop=1;jettySize=auto;html=1;fontFamily=Times New Roman;fontSize=25;fontColor=#FFFFFF;" edge="1" parent="0TIpxywI-svsfsxsPYix-71" source="0TIpxywI-svsfsxsPYix-75" target="0TIpxywI-svsfsxsPYix-81">
          <mxGeometry relative="1" as="geometry" />
        </mxCell>
        <mxCell id="0TIpxywI-svsfsxsPYix-100" value="" style="rounded=0;orthogonalLoop=1;jettySize=auto;html=1;entryX=1;entryY=1;entryDx=0;entryDy=0;fontFamily=Times New Roman;fontSize=25;fontColor=#FFFFFF;" edge="1" parent="0TIpxywI-svsfsxsPYix-71" source="0TIpxywI-svsfsxsPYix-78" target="0TIpxywI-svsfsxsPYix-81">
          <mxGeometry relative="1" as="geometry" />
        </mxCell>
        <mxCell id="0TIpxywI-svsfsxsPYix-101" value="" style="edgeStyle=orthogonalEdgeStyle;rounded=0;orthogonalLoop=1;jettySize=auto;html=1;fontFamily=Times New Roman;fontSize=25;fontColor=#FFFFFF;" edge="1" parent="0TIpxywI-svsfsxsPYix-71" source="0TIpxywI-svsfsxsPYix-78" target="0TIpxywI-svsfsxsPYix-94">
          <mxGeometry relative="1" as="geometry" />
        </mxCell>
        <mxCell id="0TIpxywI-svsfsxsPYix-102" value="" style="rounded=0;orthogonalLoop=1;jettySize=auto;html=1;entryX=1;entryY=1;entryDx=0;entryDy=0;fontFamily=Times New Roman;fontSize=25;fontColor=#FFFFFF;" edge="1" parent="0TIpxywI-svsfsxsPYix-71" source="0TIpxywI-svsfsxsPYix-90" target="0TIpxywI-svsfsxsPYix-96">
          <mxGeometry relative="1" as="geometry">
            <mxPoint x="470" y="248.99999999999977" as="targetPoint" />
          </mxGeometry>
        </mxCell>
        <mxCell id="0TIpxywI-svsfsxsPYix-103" value="" style="rounded=0;orthogonalLoop=1;jettySize=auto;html=1;entryX=0;entryY=1;entryDx=0;entryDy=0;fontFamily=Times New Roman;fontSize=25;fontColor=#FFFFFF;" edge="1" parent="0TIpxywI-svsfsxsPYix-71" source="0TIpxywI-svsfsxsPYix-85" target="0TIpxywI-svsfsxsPYix-90">
          <mxGeometry relative="1" as="geometry" />
        </mxCell>
        <mxCell id="0TIpxywI-svsfsxsPYix-104" value="" style="edgeStyle=orthogonalEdgeStyle;rounded=0;orthogonalLoop=1;jettySize=auto;html=1;fontFamily=Times New Roman;fontSize=25;fontColor=#FFFFFF;" edge="1" parent="0TIpxywI-svsfsxsPYix-71" source="0TIpxywI-svsfsxsPYix-95" target="0TIpxywI-svsfsxsPYix-96">
          <mxGeometry relative="1" as="geometry" />
        </mxCell>
        <mxCell id="0TIpxywI-svsfsxsPYix-105" value="" style="rounded=0;orthogonalLoop=1;jettySize=auto;html=1;entryX=1;entryY=1;entryDx=0;entryDy=0;fontFamily=Times New Roman;fontSize=25;fontColor=#FFFFFF;" edge="1" parent="0TIpxywI-svsfsxsPYix-71" source="0TIpxywI-svsfsxsPYix-88" target="0TIpxywI-svsfsxsPYix-95">
          <mxGeometry relative="1" as="geometry">
            <mxPoint x="630" y="529" as="targetPoint" />
          </mxGeometry>
        </mxCell>
        <mxCell id="0TIpxywI-svsfsxsPYix-106" value="" style="rounded=0;orthogonalLoop=1;jettySize=auto;html=1;entryX=0;entryY=1;entryDx=0;entryDy=0;fontFamily=Times New Roman;fontSize=25;fontColor=#FFFFFF;" edge="1" parent="0TIpxywI-svsfsxsPYix-71" source="0TIpxywI-svsfsxsPYix-75" target="0TIpxywI-svsfsxsPYix-95">
          <mxGeometry relative="1" as="geometry">
            <mxPoint x="-20" y="529" as="targetPoint" />
          </mxGeometry>
        </mxCell>
        <mxCell id="0TIpxywI-svsfsxsPYix-107" value="" style="rounded=0;orthogonalLoop=1;jettySize=auto;html=1;entryX=1;entryY=1;entryDx=0;entryDy=0;fontFamily=Times New Roman;fontSize=25;fontColor=#FFFFFF;" edge="1" parent="0TIpxywI-svsfsxsPYix-71" source="0TIpxywI-svsfsxsPYix-85" target="0TIpxywI-svsfsxsPYix-94">
          <mxGeometry relative="1" as="geometry" />
        </mxCell>
        <mxCell id="0TIpxywI-svsfsxsPYix-108" value="" style="shape=sumEllipse;perimeter=ellipsePerimeter;whiteSpace=wrap;html=1;backgroundOutline=1;fontFamily=Times New Roman;fontSize=25;fontColor=#FFFFFF;" vertex="1" parent="0TIpxywI-svsfsxsPYix-71">
          <mxGeometry x="210" y="122" width="80" height="80" as="geometry" />
        </mxCell>
        <mxCell id="0TIpxywI-svsfsxsPYix-109" value="" style="edgeStyle=orthogonalEdgeStyle;rounded=0;orthogonalLoop=1;jettySize=auto;html=1;fontFamily=Times New Roman;fontSize=25;fontColor=#FFFFFF;" edge="1" parent="0TIpxywI-svsfsxsPYix-71" source="0TIpxywI-svsfsxsPYix-92" target="0TIpxywI-svsfsxsPYix-108">
          <mxGeometry relative="1" as="geometry" />
        </mxCell>
        <mxCell id="0TIpxywI-svsfsxsPYix-110" value="" style="shape=sumEllipse;perimeter=ellipsePerimeter;whiteSpace=wrap;html=1;backgroundOutline=1;fontFamily=Times New Roman;fontSize=25;fontColor=#FFFFFF;" vertex="1" parent="0TIpxywI-svsfsxsPYix-71">
          <mxGeometry x="320" y="122" width="80" height="80" as="geometry" />
        </mxCell>
        <mxCell id="0TIpxywI-svsfsxsPYix-111" value="" style="edgeStyle=orthogonalEdgeStyle;rounded=0;orthogonalLoop=1;jettySize=auto;html=1;fontFamily=Times New Roman;fontSize=25;fontColor=#FFFFFF;" edge="1" parent="0TIpxywI-svsfsxsPYix-71" source="0TIpxywI-svsfsxsPYix-96" target="0TIpxywI-svsfsxsPYix-110">
          <mxGeometry relative="1" as="geometry" />
        </mxCell>
        <mxCell id="0TIpxywI-svsfsxsPYix-112" value="" style="group;fontFamily=Times New Roman;fontSize=25;fontColor=#FFFFFF;" vertex="1" connectable="0" parent="0TIpxywI-svsfsxsPYix-71">
          <mxGeometry x="462" y="249" width="80" height="80" as="geometry" />
        </mxCell>
        <mxCell id="0TIpxywI-svsfsxsPYix-113" value="" style="ellipse;whiteSpace=wrap;html=1;aspect=fixed;fontFamily=Times New Roman;fontSize=25;fontColor=#FFFFFF;" vertex="1" parent="0TIpxywI-svsfsxsPYix-112">
          <mxGeometry width="80" height="80" as="geometry" />
        </mxCell>
        <mxCell id="0TIpxywI-svsfsxsPYix-114" value="" style="endArrow=none;html=1;rounded=0;edgeStyle=orthogonalEdgeStyle;curved=1;fontFamily=Times New Roman;fontSize=25;fontColor=#FFFFFF;" edge="1" parent="0TIpxywI-svsfsxsPYix-112">
          <mxGeometry width="50" height="50" relative="1" as="geometry">
            <mxPoint x="55" y="55" as="sourcePoint" />
            <mxPoint x="25" y="55" as="targetPoint" />
            <Array as="points">
              <mxPoint x="45" y="55" />
              <mxPoint x="45" y="25" />
              <mxPoint x="35" y="25" />
              <mxPoint x="35" y="55" />
            </Array>
          </mxGeometry>
        </mxCell>
        <mxCell id="0TIpxywI-svsfsxsPYix-115" value="" style="group;fontFamily=Times New Roman;fontSize=25;fontColor=#FFFFFF;" vertex="1" connectable="0" parent="0TIpxywI-svsfsxsPYix-71">
          <mxGeometry x="462" y="129" width="80" height="80" as="geometry" />
        </mxCell>
        <mxCell id="0TIpxywI-svsfsxsPYix-116" value="&lt;font style=&quot;font-size: 25px;&quot;&gt;1.0&lt;/font&gt;" style="ellipse;whiteSpace=wrap;html=1;aspect=fixed;fontFamily=Times New Roman;fontSize=25;fontColor=#ffffff;fillColor=#008a00;strokeColor=#005700;" vertex="1" parent="0TIpxywI-svsfsxsPYix-115">
          <mxGeometry y="-7" width="80" height="80" as="geometry" />
        </mxCell>
        <mxCell id="0TIpxywI-svsfsxsPYix-117" value="" style="group;fontFamily=Times New Roman;fontSize=25;fontColor=#FFFFFF;" vertex="1" connectable="0" parent="0TIpxywI-svsfsxsPYix-71">
          <mxGeometry x="70" y="249" width="80" height="80" as="geometry" />
        </mxCell>
        <mxCell id="0TIpxywI-svsfsxsPYix-118" value="" style="ellipse;whiteSpace=wrap;html=1;aspect=fixed;fontFamily=Times New Roman;fontSize=25;fontColor=#FFFFFF;" vertex="1" parent="0TIpxywI-svsfsxsPYix-117">
          <mxGeometry width="80" height="80" as="geometry" />
        </mxCell>
        <mxCell id="0TIpxywI-svsfsxsPYix-119" value="" style="endArrow=none;html=1;rounded=0;edgeStyle=orthogonalEdgeStyle;curved=1;fontFamily=Times New Roman;fontSize=25;fontColor=#FFFFFF;" edge="1" parent="0TIpxywI-svsfsxsPYix-117">
          <mxGeometry width="50" height="50" relative="1" as="geometry">
            <mxPoint x="55" y="55" as="sourcePoint" />
            <mxPoint x="25" y="55" as="targetPoint" />
            <Array as="points">
              <mxPoint x="45" y="55" />
              <mxPoint x="45" y="25" />
              <mxPoint x="35" y="25" />
              <mxPoint x="35" y="55" />
            </Array>
          </mxGeometry>
        </mxCell>
        <mxCell id="0TIpxywI-svsfsxsPYix-120" value="" style="group;fontFamily=Times New Roman;fontSize=25;fontColor=#FFFFFF;fillColor=default;" vertex="1" connectable="0" parent="0TIpxywI-svsfsxsPYix-71">
          <mxGeometry x="70" y="129" width="80" height="80" as="geometry" />
        </mxCell>
        <mxCell id="0TIpxywI-svsfsxsPYix-121" value="&lt;font color=&quot;#ffffff&quot; style=&quot;font-size: 25px;&quot;&gt;1.0&lt;/font&gt;" style="ellipse;whiteSpace=wrap;html=1;aspect=fixed;fontFamily=Times New Roman;fontSize=25;fillColor=#008a00;strokeColor=#005700;fontColor=#ffffff;" vertex="1" parent="0TIpxywI-svsfsxsPYix-120">
          <mxGeometry y="-7" width="80" height="80" as="geometry" />
        </mxCell>
        <mxCell id="0TIpxywI-svsfsxsPYix-122" value="" style="shape=orEllipse;perimeter=ellipsePerimeter;whiteSpace=wrap;html=1;backgroundOutline=1;fontFamily=Times New Roman;fontSize=25;fontColor=#FFFFFF;" vertex="1" parent="0TIpxywI-svsfsxsPYix-71">
          <mxGeometry x="265" width="80" height="80" as="geometry" />
        </mxCell>
        <mxCell id="0TIpxywI-svsfsxsPYix-123" value="" style="rounded=0;orthogonalLoop=1;jettySize=auto;html=1;entryX=1;entryY=1;entryDx=0;entryDy=0;fontFamily=Times New Roman;fontSize=25;fontColor=#FFFFFF;" edge="1" parent="0TIpxywI-svsfsxsPYix-71" source="0TIpxywI-svsfsxsPYix-113" target="0TIpxywI-svsfsxsPYix-110">
          <mxGeometry relative="1" as="geometry" />
        </mxCell>
        <mxCell id="0TIpxywI-svsfsxsPYix-124" value="" style="edgeStyle=orthogonalEdgeStyle;rounded=0;orthogonalLoop=1;jettySize=auto;html=1;fontFamily=Times New Roman;fontSize=25;fontColor=#FFFFFF;" edge="1" parent="0TIpxywI-svsfsxsPYix-71" source="0TIpxywI-svsfsxsPYix-116" target="0TIpxywI-svsfsxsPYix-110">
          <mxGeometry relative="1" as="geometry" />
        </mxCell>
        <mxCell id="0TIpxywI-svsfsxsPYix-125" value="" style="rounded=0;orthogonalLoop=1;jettySize=auto;html=1;entryX=0;entryY=1;entryDx=0;entryDy=0;fontFamily=Times New Roman;fontSize=25;fontColor=#FFFFFF;" edge="1" parent="0TIpxywI-svsfsxsPYix-71" source="0TIpxywI-svsfsxsPYix-118" target="0TIpxywI-svsfsxsPYix-108">
          <mxGeometry relative="1" as="geometry" />
        </mxCell>
        <mxCell id="0TIpxywI-svsfsxsPYix-126" value="" style="rounded=0;orthogonalLoop=1;jettySize=auto;html=1;fontFamily=Times New Roman;fontSize=25;fontColor=#FFFFFF;" edge="1" parent="0TIpxywI-svsfsxsPYix-71" source="0TIpxywI-svsfsxsPYix-108" target="0TIpxywI-svsfsxsPYix-122">
          <mxGeometry relative="1" as="geometry" />
        </mxCell>
        <mxCell id="0TIpxywI-svsfsxsPYix-127" value="" style="edgeStyle=orthogonalEdgeStyle;rounded=0;orthogonalLoop=1;jettySize=auto;html=1;fontFamily=Times New Roman;fontSize=25;fontColor=#FFFFFF;" edge="1" parent="0TIpxywI-svsfsxsPYix-71" source="0TIpxywI-svsfsxsPYix-121" target="0TIpxywI-svsfsxsPYix-108">
          <mxGeometry relative="1" as="geometry" />
        </mxCell>
        <mxCell id="0TIpxywI-svsfsxsPYix-128" value="" style="edgeStyle=orthogonalEdgeStyle;rounded=0;orthogonalLoop=1;jettySize=auto;html=1;fontFamily=Times New Roman;fontSize=25;" edge="1" parent="0TIpxywI-svsfsxsPYix-71" source="0TIpxywI-svsfsxsPYix-129" target="0TIpxywI-svsfsxsPYix-118">
          <mxGeometry relative="1" as="geometry" />
        </mxCell>
        <mxCell id="0TIpxywI-svsfsxsPYix-129" value="&lt;font style=&quot;&quot;&gt;&lt;i style=&quot;font-size: 25px;&quot;&gt;x&lt;/i&gt;&lt;sub style=&quot;&quot;&gt;&lt;font style=&quot;font-size: 20px;&quot;&gt;2&lt;/font&gt;&lt;/sub&gt;&lt;/font&gt;" style="text;html=1;strokeColor=none;fillColor=none;align=center;verticalAlign=middle;whiteSpace=wrap;rounded=0;fontFamily=Times New Roman;fontSize=25;" vertex="1" parent="0TIpxywI-svsfsxsPYix-71">
          <mxGeometry y="274" width="30" height="30" as="geometry" />
        </mxCell>
        <mxCell id="0TIpxywI-svsfsxsPYix-130" value="" style="edgeStyle=orthogonalEdgeStyle;rounded=0;orthogonalLoop=1;jettySize=auto;html=1;fontFamily=Times New Roman;fontSize=25;" edge="1" parent="0TIpxywI-svsfsxsPYix-71" source="0TIpxywI-svsfsxsPYix-131" target="0TIpxywI-svsfsxsPYix-121">
          <mxGeometry relative="1" as="geometry" />
        </mxCell>
        <mxCell id="0TIpxywI-svsfsxsPYix-131" value="&lt;font style=&quot;&quot;&gt;&lt;i style=&quot;font-size: 25px;&quot;&gt;x&lt;/i&gt;&lt;sub style=&quot;&quot;&gt;&lt;font style=&quot;font-size: 20px;&quot;&gt;1&lt;/font&gt;&lt;/sub&gt;&lt;/font&gt;" style="text;html=1;strokeColor=none;fillColor=none;align=center;verticalAlign=middle;whiteSpace=wrap;rounded=0;fontFamily=Times New Roman;fontSize=25;" vertex="1" parent="0TIpxywI-svsfsxsPYix-71">
          <mxGeometry y="147" width="30" height="30" as="geometry" />
        </mxCell>
        <mxCell id="0TIpxywI-svsfsxsPYix-132" value="" style="edgeStyle=orthogonalEdgeStyle;rounded=0;orthogonalLoop=1;jettySize=auto;html=1;fontFamily=Times New Roman;fontSize=25;" edge="1" parent="0TIpxywI-svsfsxsPYix-71" source="0TIpxywI-svsfsxsPYix-133" target="0TIpxywI-svsfsxsPYix-113">
          <mxGeometry relative="1" as="geometry" />
        </mxCell>
        <mxCell id="0TIpxywI-svsfsxsPYix-133" value="&lt;font style=&quot;&quot;&gt;&lt;i style=&quot;font-size: 25px;&quot;&gt;x&lt;/i&gt;&lt;sub style=&quot;&quot;&gt;&lt;font style=&quot;font-size: 20px;&quot;&gt;2&lt;/font&gt;&lt;/sub&gt;&lt;/font&gt;" style="text;html=1;strokeColor=none;fillColor=none;align=center;verticalAlign=middle;whiteSpace=wrap;rounded=0;fontFamily=Times New Roman;fontSize=25;" vertex="1" parent="0TIpxywI-svsfsxsPYix-71">
          <mxGeometry x="580" y="274" width="30" height="30" as="geometry" />
        </mxCell>
        <mxCell id="0TIpxywI-svsfsxsPYix-134" value="" style="edgeStyle=orthogonalEdgeStyle;rounded=0;orthogonalLoop=1;jettySize=auto;html=1;fontFamily=Times New Roman;fontSize=25;" edge="1" parent="0TIpxywI-svsfsxsPYix-71" source="0TIpxywI-svsfsxsPYix-135" target="0TIpxywI-svsfsxsPYix-116">
          <mxGeometry relative="1" as="geometry" />
        </mxCell>
        <mxCell id="0TIpxywI-svsfsxsPYix-135" value="&lt;font style=&quot;&quot;&gt;&lt;i style=&quot;font-size: 25px;&quot;&gt;x&lt;/i&gt;&lt;sub style=&quot;&quot;&gt;&lt;font style=&quot;font-size: 20px;&quot;&gt;1&lt;/font&gt;&lt;/sub&gt;&lt;/font&gt;" style="text;html=1;strokeColor=none;fillColor=none;align=center;verticalAlign=middle;whiteSpace=wrap;rounded=0;fontFamily=Times New Roman;fontSize=25;" vertex="1" parent="0TIpxywI-svsfsxsPYix-71">
          <mxGeometry x="580" y="147" width="30" height="30" as="geometry" />
        </mxCell>
        <mxCell id="0TIpxywI-svsfsxsPYix-136" value="" style="rounded=0;orthogonalLoop=1;jettySize=auto;html=1;fontFamily=Times New Roman;fontSize=25;fontColor=#FFFFFF;" edge="1" parent="0TIpxywI-svsfsxsPYix-71" source="0TIpxywI-svsfsxsPYix-110" target="0TIpxywI-svsfsxsPYix-122">
          <mxGeometry relative="1" as="geometry" />
        </mxCell>
        <mxCell id="0TIpxywI-svsfsxsPYix-277" value="&lt;b&gt;&lt;font style=&quot;font-size: 24px;&quot;&gt;B&lt;/font&gt;&lt;/b&gt;" style="text;html=1;align=center;verticalAlign=middle;whiteSpace=wrap;rounded=0;" vertex="1" parent="0TIpxywI-svsfsxsPYix-71">
          <mxGeometry width="60" height="30" as="geometry" />
        </mxCell>
        <mxCell id="0TIpxywI-svsfsxsPYix-137" value="" style="group;fontFamily=Times New Roman;fontSize=25;fillColor=default;" vertex="1" connectable="0" parent="1">
          <mxGeometry x="1300" width="610" height="629" as="geometry" />
        </mxCell>
        <mxCell id="0TIpxywI-svsfsxsPYix-138" value="&lt;font style=&quot;&quot;&gt;&lt;i style=&quot;font-size: 25px;&quot;&gt;x&lt;/i&gt;&lt;sub style=&quot;&quot;&gt;&lt;font style=&quot;font-size: 20px;&quot;&gt;4&lt;/font&gt;&lt;/sub&gt;&lt;/font&gt;" style="text;html=1;strokeColor=none;fillColor=none;align=center;verticalAlign=middle;whiteSpace=wrap;rounded=0;fontFamily=Times New Roman;fontSize=25;" vertex="1" parent="0TIpxywI-svsfsxsPYix-137">
          <mxGeometry x="235" y="599" width="30" height="30" as="geometry" />
        </mxCell>
        <mxCell id="0TIpxywI-svsfsxsPYix-139" value="&lt;font style=&quot;&quot;&gt;&lt;span style=&quot;font-size: 25px; font-style: italic;&quot;&gt;x&lt;/span&gt;&lt;sub style=&quot;&quot;&gt;&lt;font style=&quot;font-size: 20px;&quot;&gt;3&lt;/font&gt;&lt;/sub&gt;&lt;/font&gt;" style="text;html=1;strokeColor=none;fillColor=none;align=center;verticalAlign=middle;whiteSpace=wrap;rounded=0;fontFamily=Times New Roman;fontSize=25;" vertex="1" parent="0TIpxywI-svsfsxsPYix-137">
          <mxGeometry x="125" y="599" width="30" height="30" as="geometry" />
        </mxCell>
        <mxCell id="0TIpxywI-svsfsxsPYix-140" value="" style="group;fontFamily=Times New Roman;fontSize=25;fontColor=#FFFFFF;" vertex="1" connectable="0" parent="0TIpxywI-svsfsxsPYix-137">
          <mxGeometry x="100" y="489" width="80" height="80" as="geometry" />
        </mxCell>
        <mxCell id="0TIpxywI-svsfsxsPYix-141" value="1.0" style="ellipse;whiteSpace=wrap;html=1;aspect=fixed;fontFamily=Times New Roman;fontSize=25;fontColor=#ffffff;fillColor=#008a00;strokeColor=#005700;" vertex="1" parent="0TIpxywI-svsfsxsPYix-140">
          <mxGeometry width="80" height="80" as="geometry" />
        </mxCell>
        <mxCell id="0TIpxywI-svsfsxsPYix-142" value="" style="edgeStyle=orthogonalEdgeStyle;rounded=0;orthogonalLoop=1;jettySize=auto;html=1;fontFamily=Times New Roman;fontSize=25;" edge="1" parent="0TIpxywI-svsfsxsPYix-137" source="0TIpxywI-svsfsxsPYix-139" target="0TIpxywI-svsfsxsPYix-141">
          <mxGeometry relative="1" as="geometry" />
        </mxCell>
        <mxCell id="0TIpxywI-svsfsxsPYix-143" value="" style="group;fontFamily=Times New Roman;fontSize=25;fontColor=#FFFFFF;" vertex="1" connectable="0" parent="0TIpxywI-svsfsxsPYix-137">
          <mxGeometry x="210" y="489" width="80" height="80" as="geometry" />
        </mxCell>
        <mxCell id="0TIpxywI-svsfsxsPYix-144" value="&lt;font color=&quot;#ffffff&quot;&gt;0.58&lt;/font&gt;" style="ellipse;whiteSpace=wrap;html=1;aspect=fixed;fontFamily=Times New Roman;fontSize=25;fontColor=#000000;fillColor=#fa6800;strokeColor=#C73500;" vertex="1" parent="0TIpxywI-svsfsxsPYix-143">
          <mxGeometry width="80" height="80" as="geometry" />
        </mxCell>
        <mxCell id="0TIpxywI-svsfsxsPYix-145" value="" style="edgeStyle=orthogonalEdgeStyle;rounded=0;orthogonalLoop=1;jettySize=auto;html=1;fontFamily=Times New Roman;fontSize=25;" edge="1" parent="0TIpxywI-svsfsxsPYix-137" source="0TIpxywI-svsfsxsPYix-138" target="0TIpxywI-svsfsxsPYix-144">
          <mxGeometry relative="1" as="geometry" />
        </mxCell>
        <mxCell id="0TIpxywI-svsfsxsPYix-146" value="" style="shape=sumEllipse;perimeter=ellipsePerimeter;whiteSpace=wrap;html=1;backgroundOutline=1;fontFamily=Times New Roman;fontSize=25;fontColor=#FFFFFF;" vertex="1" parent="0TIpxywI-svsfsxsPYix-137">
          <mxGeometry x="100" y="369" width="80" height="80" as="geometry" />
        </mxCell>
        <mxCell id="0TIpxywI-svsfsxsPYix-147" value="&lt;font style=&quot;&quot;&gt;&lt;i style=&quot;font-size: 25px;&quot;&gt;x&lt;/i&gt;&lt;sub style=&quot;&quot;&gt;&lt;font style=&quot;font-size: 20px;&quot;&gt;4&lt;/font&gt;&lt;/sub&gt;&lt;/font&gt;" style="text;html=1;strokeColor=none;fillColor=none;align=center;verticalAlign=middle;whiteSpace=wrap;rounded=0;fontFamily=Times New Roman;fontSize=25;" vertex="1" parent="0TIpxywI-svsfsxsPYix-137">
          <mxGeometry x="455" y="599" width="30" height="30" as="geometry" />
        </mxCell>
        <mxCell id="0TIpxywI-svsfsxsPYix-148" value="&lt;font style=&quot;&quot;&gt;&lt;i style=&quot;font-size: 25px;&quot;&gt;x&lt;/i&gt;&lt;sub style=&quot;&quot;&gt;&lt;font style=&quot;font-size: 20px;&quot;&gt;3&lt;/font&gt;&lt;/sub&gt;&lt;/font&gt;" style="text;html=1;strokeColor=none;fillColor=none;align=center;verticalAlign=middle;whiteSpace=wrap;rounded=0;fontFamily=Times New Roman;fontSize=25;" vertex="1" parent="0TIpxywI-svsfsxsPYix-137">
          <mxGeometry x="345" y="599" width="30" height="30" as="geometry" />
        </mxCell>
        <mxCell id="0TIpxywI-svsfsxsPYix-149" value="" style="group;fontFamily=Times New Roman;fontSize=25;fontColor=#FFFFFF;" vertex="1" connectable="0" parent="0TIpxywI-svsfsxsPYix-137">
          <mxGeometry x="320" y="489" width="80" height="80" as="geometry" />
        </mxCell>
        <mxCell id="0TIpxywI-svsfsxsPYix-150" value="1.0" style="ellipse;whiteSpace=wrap;html=1;aspect=fixed;fontFamily=Times New Roman;fontSize=25;fontColor=#ffffff;fillColor=#008a00;strokeColor=#005700;" vertex="1" parent="0TIpxywI-svsfsxsPYix-149">
          <mxGeometry width="80" height="80" as="geometry" />
        </mxCell>
        <mxCell id="0TIpxywI-svsfsxsPYix-151" value="" style="edgeStyle=orthogonalEdgeStyle;rounded=0;orthogonalLoop=1;jettySize=auto;html=1;fontFamily=Times New Roman;fontSize=25;" edge="1" parent="0TIpxywI-svsfsxsPYix-137" source="0TIpxywI-svsfsxsPYix-148" target="0TIpxywI-svsfsxsPYix-150">
          <mxGeometry relative="1" as="geometry" />
        </mxCell>
        <mxCell id="0TIpxywI-svsfsxsPYix-152" value="" style="group;fontFamily=Times New Roman;fontSize=25;fontColor=#FFFFFF;" vertex="1" connectable="0" parent="0TIpxywI-svsfsxsPYix-137">
          <mxGeometry x="430" y="489" width="80" height="80" as="geometry" />
        </mxCell>
        <mxCell id="0TIpxywI-svsfsxsPYix-153" value=".77" style="ellipse;whiteSpace=wrap;html=1;aspect=fixed;fontFamily=Times New Roman;fontSize=25;fontColor=#FFFFFF;fillColor=#fa6800;strokeColor=#C73500;" vertex="1" parent="0TIpxywI-svsfsxsPYix-152">
          <mxGeometry width="80" height="80" as="geometry" />
        </mxCell>
        <mxCell id="0TIpxywI-svsfsxsPYix-154" value="" style="shape=sumEllipse;perimeter=ellipsePerimeter;whiteSpace=wrap;html=1;backgroundOutline=1;fontFamily=Times New Roman;fontSize=25;fontColor=#FFFFFF;" vertex="1" parent="0TIpxywI-svsfsxsPYix-137">
          <mxGeometry x="430" y="369" width="80" height="80" as="geometry" />
        </mxCell>
        <mxCell id="0TIpxywI-svsfsxsPYix-155" value="" style="edgeStyle=orthogonalEdgeStyle;rounded=0;orthogonalLoop=1;jettySize=auto;html=1;fontFamily=Times New Roman;fontSize=25;" edge="1" parent="0TIpxywI-svsfsxsPYix-137" source="0TIpxywI-svsfsxsPYix-147" target="0TIpxywI-svsfsxsPYix-153">
          <mxGeometry relative="1" as="geometry" />
        </mxCell>
        <mxCell id="0TIpxywI-svsfsxsPYix-156" value="" style="shape=orEllipse;perimeter=ellipsePerimeter;whiteSpace=wrap;html=1;backgroundOutline=1;fontFamily=Times New Roman;fontSize=25;fontColor=#FFFFFF;" vertex="1" parent="0TIpxywI-svsfsxsPYix-137">
          <mxGeometry x="210" y="249" width="80" height="80" as="geometry" />
        </mxCell>
        <mxCell id="0TIpxywI-svsfsxsPYix-157" value="" style="edgeStyle=orthogonalEdgeStyle;rounded=0;orthogonalLoop=1;jettySize=auto;html=1;fontFamily=Times New Roman;fontSize=25;fontColor=#FFFFFF;" edge="1" parent="0TIpxywI-svsfsxsPYix-137" source="0TIpxywI-svsfsxsPYix-158" target="0TIpxywI-svsfsxsPYix-156">
          <mxGeometry relative="1" as="geometry" />
        </mxCell>
        <mxCell id="0TIpxywI-svsfsxsPYix-158" value="" style="shape=sumEllipse;perimeter=ellipsePerimeter;whiteSpace=wrap;html=1;backgroundOutline=1;fontFamily=Times New Roman;fontSize=25;fontColor=#FFFFFF;" vertex="1" parent="0TIpxywI-svsfsxsPYix-137">
          <mxGeometry x="210" y="369" width="80" height="80" as="geometry" />
        </mxCell>
        <mxCell id="0TIpxywI-svsfsxsPYix-159" value="" style="shape=sumEllipse;perimeter=ellipsePerimeter;whiteSpace=wrap;html=1;backgroundOutline=1;fontFamily=Times New Roman;fontSize=25;fontColor=#FFFFFF;" vertex="1" parent="0TIpxywI-svsfsxsPYix-137">
          <mxGeometry x="320" y="369" width="80" height="80" as="geometry" />
        </mxCell>
        <mxCell id="0TIpxywI-svsfsxsPYix-160" value="" style="shape=orEllipse;perimeter=ellipsePerimeter;whiteSpace=wrap;html=1;backgroundOutline=1;fontFamily=Times New Roman;fontSize=25;fontColor=#FFFFFF;" vertex="1" parent="0TIpxywI-svsfsxsPYix-137">
          <mxGeometry x="320" y="249" width="80" height="80" as="geometry" />
        </mxCell>
        <mxCell id="0TIpxywI-svsfsxsPYix-161" value="" style="rounded=0;orthogonalLoop=1;jettySize=auto;html=1;entryX=0;entryY=1;entryDx=0;entryDy=0;fontFamily=Times New Roman;fontSize=25;fontColor=#FFFFFF;" edge="1" parent="0TIpxywI-svsfsxsPYix-137" source="0TIpxywI-svsfsxsPYix-146" target="0TIpxywI-svsfsxsPYix-156">
          <mxGeometry relative="1" as="geometry">
            <mxPoint x="200" y="249" as="targetPoint" />
          </mxGeometry>
        </mxCell>
        <mxCell id="0TIpxywI-svsfsxsPYix-162" value="" style="edgeStyle=orthogonalEdgeStyle;rounded=0;orthogonalLoop=1;jettySize=auto;html=1;fontFamily=Times New Roman;fontSize=25;fontColor=#FFFFFF;" edge="1" parent="0TIpxywI-svsfsxsPYix-137" source="0TIpxywI-svsfsxsPYix-153" target="0TIpxywI-svsfsxsPYix-154">
          <mxGeometry relative="1" as="geometry" />
        </mxCell>
        <mxCell id="0TIpxywI-svsfsxsPYix-163" value="" style="edgeStyle=orthogonalEdgeStyle;rounded=0;orthogonalLoop=1;jettySize=auto;html=1;fontFamily=Times New Roman;fontSize=25;fontColor=#FFFFFF;" edge="1" parent="0TIpxywI-svsfsxsPYix-137" source="0TIpxywI-svsfsxsPYix-141" target="0TIpxywI-svsfsxsPYix-146">
          <mxGeometry relative="1" as="geometry" />
        </mxCell>
        <mxCell id="0TIpxywI-svsfsxsPYix-164" value="" style="rounded=0;orthogonalLoop=1;jettySize=auto;html=1;entryX=1;entryY=1;entryDx=0;entryDy=0;fontFamily=Times New Roman;fontSize=25;fontColor=#FFFFFF;" edge="1" parent="0TIpxywI-svsfsxsPYix-137" source="0TIpxywI-svsfsxsPYix-144" target="0TIpxywI-svsfsxsPYix-146">
          <mxGeometry relative="1" as="geometry" />
        </mxCell>
        <mxCell id="0TIpxywI-svsfsxsPYix-165" value="" style="edgeStyle=orthogonalEdgeStyle;rounded=0;orthogonalLoop=1;jettySize=auto;html=1;fontFamily=Times New Roman;fontSize=25;fontColor=#FFFFFF;" edge="1" parent="0TIpxywI-svsfsxsPYix-137" source="0TIpxywI-svsfsxsPYix-144" target="0TIpxywI-svsfsxsPYix-158">
          <mxGeometry relative="1" as="geometry" />
        </mxCell>
        <mxCell id="0TIpxywI-svsfsxsPYix-166" value="" style="rounded=0;orthogonalLoop=1;jettySize=auto;html=1;entryX=1;entryY=1;entryDx=0;entryDy=0;fontFamily=Times New Roman;fontSize=25;fontColor=#FFFFFF;" edge="1" parent="0TIpxywI-svsfsxsPYix-137" source="0TIpxywI-svsfsxsPYix-154" target="0TIpxywI-svsfsxsPYix-160">
          <mxGeometry relative="1" as="geometry">
            <mxPoint x="470" y="248.99999999999977" as="targetPoint" />
          </mxGeometry>
        </mxCell>
        <mxCell id="0TIpxywI-svsfsxsPYix-167" value="" style="rounded=0;orthogonalLoop=1;jettySize=auto;html=1;entryX=0;entryY=1;entryDx=0;entryDy=0;fontFamily=Times New Roman;fontSize=25;fontColor=#FFFFFF;" edge="1" parent="0TIpxywI-svsfsxsPYix-137" source="0TIpxywI-svsfsxsPYix-150" target="0TIpxywI-svsfsxsPYix-154">
          <mxGeometry relative="1" as="geometry" />
        </mxCell>
        <mxCell id="0TIpxywI-svsfsxsPYix-168" value="" style="edgeStyle=orthogonalEdgeStyle;rounded=0;orthogonalLoop=1;jettySize=auto;html=1;fontFamily=Times New Roman;fontSize=25;fontColor=#FFFFFF;" edge="1" parent="0TIpxywI-svsfsxsPYix-137" source="0TIpxywI-svsfsxsPYix-159" target="0TIpxywI-svsfsxsPYix-160">
          <mxGeometry relative="1" as="geometry" />
        </mxCell>
        <mxCell id="0TIpxywI-svsfsxsPYix-169" value="" style="rounded=0;orthogonalLoop=1;jettySize=auto;html=1;entryX=1;entryY=1;entryDx=0;entryDy=0;fontFamily=Times New Roman;fontSize=25;fontColor=#FFFFFF;" edge="1" parent="0TIpxywI-svsfsxsPYix-137" source="0TIpxywI-svsfsxsPYix-153" target="0TIpxywI-svsfsxsPYix-159">
          <mxGeometry relative="1" as="geometry">
            <mxPoint x="630" y="529" as="targetPoint" />
          </mxGeometry>
        </mxCell>
        <mxCell id="0TIpxywI-svsfsxsPYix-170" value="" style="rounded=0;orthogonalLoop=1;jettySize=auto;html=1;entryX=0;entryY=1;entryDx=0;entryDy=0;fontFamily=Times New Roman;fontSize=25;fontColor=#FFFFFF;" edge="1" parent="0TIpxywI-svsfsxsPYix-137" source="0TIpxywI-svsfsxsPYix-141" target="0TIpxywI-svsfsxsPYix-159">
          <mxGeometry relative="1" as="geometry">
            <mxPoint x="-20" y="529" as="targetPoint" />
          </mxGeometry>
        </mxCell>
        <mxCell id="0TIpxywI-svsfsxsPYix-171" value="" style="rounded=0;orthogonalLoop=1;jettySize=auto;html=1;entryX=1;entryY=1;entryDx=0;entryDy=0;fontFamily=Times New Roman;fontSize=25;fontColor=#FFFFFF;" edge="1" parent="0TIpxywI-svsfsxsPYix-137" source="0TIpxywI-svsfsxsPYix-150" target="0TIpxywI-svsfsxsPYix-158">
          <mxGeometry relative="1" as="geometry" />
        </mxCell>
        <mxCell id="0TIpxywI-svsfsxsPYix-172" value="" style="shape=sumEllipse;perimeter=ellipsePerimeter;whiteSpace=wrap;html=1;backgroundOutline=1;fontFamily=Times New Roman;fontSize=25;fontColor=#FFFFFF;" vertex="1" parent="0TIpxywI-svsfsxsPYix-137">
          <mxGeometry x="210" y="122" width="80" height="80" as="geometry" />
        </mxCell>
        <mxCell id="0TIpxywI-svsfsxsPYix-173" value="" style="edgeStyle=orthogonalEdgeStyle;rounded=0;orthogonalLoop=1;jettySize=auto;html=1;fontFamily=Times New Roman;fontSize=25;fontColor=#FFFFFF;" edge="1" parent="0TIpxywI-svsfsxsPYix-137" source="0TIpxywI-svsfsxsPYix-156" target="0TIpxywI-svsfsxsPYix-172">
          <mxGeometry relative="1" as="geometry" />
        </mxCell>
        <mxCell id="0TIpxywI-svsfsxsPYix-174" value="" style="shape=sumEllipse;perimeter=ellipsePerimeter;whiteSpace=wrap;html=1;backgroundOutline=1;fontFamily=Times New Roman;fontSize=25;fontColor=#FFFFFF;" vertex="1" parent="0TIpxywI-svsfsxsPYix-137">
          <mxGeometry x="320" y="122" width="80" height="80" as="geometry" />
        </mxCell>
        <mxCell id="0TIpxywI-svsfsxsPYix-175" value="" style="edgeStyle=orthogonalEdgeStyle;rounded=0;orthogonalLoop=1;jettySize=auto;html=1;fontFamily=Times New Roman;fontSize=25;fontColor=#FFFFFF;" edge="1" parent="0TIpxywI-svsfsxsPYix-137" source="0TIpxywI-svsfsxsPYix-160" target="0TIpxywI-svsfsxsPYix-174">
          <mxGeometry relative="1" as="geometry" />
        </mxCell>
        <mxCell id="0TIpxywI-svsfsxsPYix-176" value="" style="group;fontFamily=Times New Roman;fontSize=25;fontColor=#FFFFFF;" vertex="1" connectable="0" parent="0TIpxywI-svsfsxsPYix-137">
          <mxGeometry x="462" y="249" width="80" height="80" as="geometry" />
        </mxCell>
        <mxCell id="0TIpxywI-svsfsxsPYix-177" value="0.83" style="ellipse;whiteSpace=wrap;html=1;aspect=fixed;fontFamily=Times New Roman;fontSize=25;fontColor=#FFFFFF;fillColor=#fa6800;strokeColor=#C73500;" vertex="1" parent="0TIpxywI-svsfsxsPYix-176">
          <mxGeometry width="80" height="80" as="geometry" />
        </mxCell>
        <mxCell id="0TIpxywI-svsfsxsPYix-178" value="" style="group;fontFamily=Times New Roman;fontSize=25;fontColor=#FFFFFF;" vertex="1" connectable="0" parent="0TIpxywI-svsfsxsPYix-137">
          <mxGeometry x="462" y="129" width="80" height="80" as="geometry" />
        </mxCell>
        <mxCell id="0TIpxywI-svsfsxsPYix-179" value="&lt;font style=&quot;font-size: 25px;&quot;&gt;1.0&lt;/font&gt;" style="ellipse;whiteSpace=wrap;html=1;aspect=fixed;fontFamily=Times New Roman;fontSize=25;fontColor=#ffffff;fillColor=#008a00;strokeColor=#005700;" vertex="1" parent="0TIpxywI-svsfsxsPYix-178">
          <mxGeometry y="-7" width="80" height="80" as="geometry" />
        </mxCell>
        <mxCell id="0TIpxywI-svsfsxsPYix-180" value="" style="group;fontFamily=Times New Roman;fontSize=25;fontColor=#FFFFFF;" vertex="1" connectable="0" parent="0TIpxywI-svsfsxsPYix-137">
          <mxGeometry x="70" y="249" width="80" height="80" as="geometry" />
        </mxCell>
        <mxCell id="0TIpxywI-svsfsxsPYix-181" value="&lt;font color=&quot;#ffffff&quot;&gt;.61&lt;/font&gt;" style="ellipse;whiteSpace=wrap;html=1;aspect=fixed;fontFamily=Times New Roman;fontSize=25;fontColor=#000000;fillColor=#fa6800;strokeColor=#C73500;" vertex="1" parent="0TIpxywI-svsfsxsPYix-180">
          <mxGeometry width="80" height="80" as="geometry" />
        </mxCell>
        <mxCell id="0TIpxywI-svsfsxsPYix-182" value="" style="group;fontFamily=Times New Roman;fontSize=25;fontColor=#FFFFFF;fillColor=default;" vertex="1" connectable="0" parent="0TIpxywI-svsfsxsPYix-137">
          <mxGeometry x="70" y="129" width="80" height="80" as="geometry" />
        </mxCell>
        <mxCell id="0TIpxywI-svsfsxsPYix-183" value="&lt;font color=&quot;#ffffff&quot; style=&quot;font-size: 25px;&quot;&gt;1.0&lt;/font&gt;" style="ellipse;whiteSpace=wrap;html=1;aspect=fixed;fontFamily=Times New Roman;fontSize=25;fillColor=#008a00;strokeColor=#005700;fontColor=#ffffff;" vertex="1" parent="0TIpxywI-svsfsxsPYix-182">
          <mxGeometry y="-7" width="80" height="80" as="geometry" />
        </mxCell>
        <mxCell id="0TIpxywI-svsfsxsPYix-184" value="" style="shape=orEllipse;perimeter=ellipsePerimeter;whiteSpace=wrap;html=1;backgroundOutline=1;fontFamily=Times New Roman;fontSize=25;fontColor=#FFFFFF;" vertex="1" parent="0TIpxywI-svsfsxsPYix-137">
          <mxGeometry x="265" width="80" height="80" as="geometry" />
        </mxCell>
        <mxCell id="0TIpxywI-svsfsxsPYix-185" value="" style="rounded=0;orthogonalLoop=1;jettySize=auto;html=1;entryX=1;entryY=1;entryDx=0;entryDy=0;fontFamily=Times New Roman;fontSize=25;fontColor=#FFFFFF;" edge="1" parent="0TIpxywI-svsfsxsPYix-137" source="0TIpxywI-svsfsxsPYix-177" target="0TIpxywI-svsfsxsPYix-174">
          <mxGeometry relative="1" as="geometry" />
        </mxCell>
        <mxCell id="0TIpxywI-svsfsxsPYix-186" value="" style="edgeStyle=orthogonalEdgeStyle;rounded=0;orthogonalLoop=1;jettySize=auto;html=1;fontFamily=Times New Roman;fontSize=25;fontColor=#FFFFFF;" edge="1" parent="0TIpxywI-svsfsxsPYix-137" source="0TIpxywI-svsfsxsPYix-179" target="0TIpxywI-svsfsxsPYix-174">
          <mxGeometry relative="1" as="geometry" />
        </mxCell>
        <mxCell id="0TIpxywI-svsfsxsPYix-187" value="" style="rounded=0;orthogonalLoop=1;jettySize=auto;html=1;entryX=0;entryY=1;entryDx=0;entryDy=0;fontFamily=Times New Roman;fontSize=25;fontColor=#FFFFFF;" edge="1" parent="0TIpxywI-svsfsxsPYix-137" source="0TIpxywI-svsfsxsPYix-181" target="0TIpxywI-svsfsxsPYix-172">
          <mxGeometry relative="1" as="geometry" />
        </mxCell>
        <mxCell id="0TIpxywI-svsfsxsPYix-188" value="" style="rounded=0;orthogonalLoop=1;jettySize=auto;html=1;fontFamily=Times New Roman;fontSize=25;fontColor=#FFFFFF;" edge="1" parent="0TIpxywI-svsfsxsPYix-137" source="0TIpxywI-svsfsxsPYix-172" target="0TIpxywI-svsfsxsPYix-184">
          <mxGeometry relative="1" as="geometry" />
        </mxCell>
        <mxCell id="0TIpxywI-svsfsxsPYix-189" value="" style="edgeStyle=orthogonalEdgeStyle;rounded=0;orthogonalLoop=1;jettySize=auto;html=1;fontFamily=Times New Roman;fontSize=25;fontColor=#FFFFFF;" edge="1" parent="0TIpxywI-svsfsxsPYix-137" source="0TIpxywI-svsfsxsPYix-183" target="0TIpxywI-svsfsxsPYix-172">
          <mxGeometry relative="1" as="geometry" />
        </mxCell>
        <mxCell id="0TIpxywI-svsfsxsPYix-190" value="" style="edgeStyle=orthogonalEdgeStyle;rounded=0;orthogonalLoop=1;jettySize=auto;html=1;fontFamily=Times New Roman;fontSize=25;" edge="1" parent="0TIpxywI-svsfsxsPYix-137" source="0TIpxywI-svsfsxsPYix-191" target="0TIpxywI-svsfsxsPYix-181">
          <mxGeometry relative="1" as="geometry" />
        </mxCell>
        <mxCell id="0TIpxywI-svsfsxsPYix-191" value="&lt;font style=&quot;&quot;&gt;&lt;i style=&quot;font-size: 25px;&quot;&gt;x&lt;/i&gt;&lt;sub style=&quot;&quot;&gt;&lt;font style=&quot;font-size: 20px;&quot;&gt;2&lt;/font&gt;&lt;/sub&gt;&lt;/font&gt;" style="text;html=1;strokeColor=none;fillColor=none;align=center;verticalAlign=middle;whiteSpace=wrap;rounded=0;fontFamily=Times New Roman;fontSize=25;" vertex="1" parent="0TIpxywI-svsfsxsPYix-137">
          <mxGeometry y="274" width="30" height="30" as="geometry" />
        </mxCell>
        <mxCell id="0TIpxywI-svsfsxsPYix-192" value="" style="edgeStyle=orthogonalEdgeStyle;rounded=0;orthogonalLoop=1;jettySize=auto;html=1;fontFamily=Times New Roman;fontSize=25;" edge="1" parent="0TIpxywI-svsfsxsPYix-137" source="0TIpxywI-svsfsxsPYix-193" target="0TIpxywI-svsfsxsPYix-183">
          <mxGeometry relative="1" as="geometry" />
        </mxCell>
        <mxCell id="0TIpxywI-svsfsxsPYix-193" value="&lt;font style=&quot;&quot;&gt;&lt;i style=&quot;font-size: 25px;&quot;&gt;x&lt;/i&gt;&lt;sub style=&quot;&quot;&gt;&lt;font style=&quot;font-size: 20px;&quot;&gt;1&lt;/font&gt;&lt;/sub&gt;&lt;/font&gt;" style="text;html=1;strokeColor=none;fillColor=none;align=center;verticalAlign=middle;whiteSpace=wrap;rounded=0;fontFamily=Times New Roman;fontSize=25;" vertex="1" parent="0TIpxywI-svsfsxsPYix-137">
          <mxGeometry y="147" width="30" height="30" as="geometry" />
        </mxCell>
        <mxCell id="0TIpxywI-svsfsxsPYix-194" value="" style="edgeStyle=orthogonalEdgeStyle;rounded=0;orthogonalLoop=1;jettySize=auto;html=1;fontFamily=Times New Roman;fontSize=25;" edge="1" parent="0TIpxywI-svsfsxsPYix-137" source="0TIpxywI-svsfsxsPYix-195" target="0TIpxywI-svsfsxsPYix-177">
          <mxGeometry relative="1" as="geometry" />
        </mxCell>
        <mxCell id="0TIpxywI-svsfsxsPYix-195" value="&lt;font style=&quot;&quot;&gt;&lt;i style=&quot;font-size: 25px;&quot;&gt;x&lt;/i&gt;&lt;sub style=&quot;&quot;&gt;&lt;font style=&quot;font-size: 20px;&quot;&gt;2&lt;/font&gt;&lt;/sub&gt;&lt;/font&gt;" style="text;html=1;strokeColor=none;fillColor=none;align=center;verticalAlign=middle;whiteSpace=wrap;rounded=0;fontFamily=Times New Roman;fontSize=25;" vertex="1" parent="0TIpxywI-svsfsxsPYix-137">
          <mxGeometry x="580" y="274" width="30" height="30" as="geometry" />
        </mxCell>
        <mxCell id="0TIpxywI-svsfsxsPYix-196" value="" style="edgeStyle=orthogonalEdgeStyle;rounded=0;orthogonalLoop=1;jettySize=auto;html=1;fontFamily=Times New Roman;fontSize=25;" edge="1" parent="0TIpxywI-svsfsxsPYix-137" source="0TIpxywI-svsfsxsPYix-197" target="0TIpxywI-svsfsxsPYix-179">
          <mxGeometry relative="1" as="geometry" />
        </mxCell>
        <mxCell id="0TIpxywI-svsfsxsPYix-197" value="&lt;font style=&quot;&quot;&gt;&lt;i style=&quot;font-size: 25px;&quot;&gt;x&lt;/i&gt;&lt;sub style=&quot;&quot;&gt;&lt;font style=&quot;font-size: 20px;&quot;&gt;1&lt;/font&gt;&lt;/sub&gt;&lt;/font&gt;" style="text;html=1;strokeColor=none;fillColor=none;align=center;verticalAlign=middle;whiteSpace=wrap;rounded=0;fontFamily=Times New Roman;fontSize=25;" vertex="1" parent="0TIpxywI-svsfsxsPYix-137">
          <mxGeometry x="580" y="147" width="30" height="30" as="geometry" />
        </mxCell>
        <mxCell id="0TIpxywI-svsfsxsPYix-198" value="" style="rounded=0;orthogonalLoop=1;jettySize=auto;html=1;fontFamily=Times New Roman;fontSize=25;fontColor=#FFFFFF;" edge="1" parent="0TIpxywI-svsfsxsPYix-137" source="0TIpxywI-svsfsxsPYix-174" target="0TIpxywI-svsfsxsPYix-184">
          <mxGeometry relative="1" as="geometry" />
        </mxCell>
        <mxCell id="0TIpxywI-svsfsxsPYix-278" value="&lt;b&gt;&lt;font style=&quot;font-size: 24px;&quot;&gt;C&lt;/font&gt;&lt;/b&gt;" style="text;html=1;align=center;verticalAlign=middle;whiteSpace=wrap;rounded=0;" vertex="1" parent="0TIpxywI-svsfsxsPYix-137">
          <mxGeometry width="60" height="30" as="geometry" />
        </mxCell>
        <mxCell id="0TIpxywI-svsfsxsPYix-199" value="" style="group;fontFamily=Times New Roman;fontSize=25;fillColor=default;container=0;" vertex="1" connectable="0" parent="1">
          <mxGeometry x="1950" width="610" height="629" as="geometry" />
        </mxCell>
        <mxCell id="0TIpxywI-svsfsxsPYix-200" value="&lt;font style=&quot;&quot;&gt;&lt;i style=&quot;font-size: 25px;&quot;&gt;x&lt;/i&gt;&lt;sub style=&quot;&quot;&gt;&lt;font style=&quot;font-size: 20px;&quot;&gt;4&lt;/font&gt;&lt;/sub&gt;&lt;/font&gt;" style="text;html=1;strokeColor=none;fillColor=none;align=center;verticalAlign=middle;whiteSpace=wrap;rounded=0;fontFamily=Times New Roman;fontSize=25;" vertex="1" parent="1">
          <mxGeometry x="2195" y="599" width="30" height="30" as="geometry" />
        </mxCell>
        <mxCell id="0TIpxywI-svsfsxsPYix-201" value="&lt;font style=&quot;&quot;&gt;&lt;span style=&quot;font-size: 25px; font-style: italic;&quot;&gt;x&lt;/span&gt;&lt;sub style=&quot;&quot;&gt;&lt;font style=&quot;font-size: 20px;&quot;&gt;3&lt;/font&gt;&lt;/sub&gt;&lt;/font&gt;" style="text;html=1;strokeColor=none;fillColor=none;align=center;verticalAlign=middle;whiteSpace=wrap;rounded=0;fontFamily=Times New Roman;fontSize=25;" vertex="1" parent="1">
          <mxGeometry x="2085" y="599" width="30" height="30" as="geometry" />
        </mxCell>
        <mxCell id="0TIpxywI-svsfsxsPYix-202" value="" style="group;fontFamily=Times New Roman;fontSize=25;fontColor=#FFFFFF;" vertex="1" connectable="0" parent="1">
          <mxGeometry x="2060" y="489" width="80" height="80" as="geometry" />
        </mxCell>
        <mxCell id="0TIpxywI-svsfsxsPYix-203" value="1.0" style="ellipse;whiteSpace=wrap;html=1;aspect=fixed;fontFamily=Times New Roman;fontSize=25;fontColor=#ffffff;fillColor=#008a00;strokeColor=#005700;" vertex="1" parent="0TIpxywI-svsfsxsPYix-202">
          <mxGeometry width="80" height="80" as="geometry" />
        </mxCell>
        <mxCell id="0TIpxywI-svsfsxsPYix-204" value="" style="edgeStyle=orthogonalEdgeStyle;rounded=0;orthogonalLoop=1;jettySize=auto;html=1;fontFamily=Times New Roman;fontSize=25;" edge="1" parent="1" source="0TIpxywI-svsfsxsPYix-201" target="0TIpxywI-svsfsxsPYix-203">
          <mxGeometry relative="1" as="geometry" />
        </mxCell>
        <mxCell id="0TIpxywI-svsfsxsPYix-205" value="" style="group;fontFamily=Times New Roman;fontSize=25;fontColor=#FFFFFF;" vertex="1" connectable="0" parent="1">
          <mxGeometry x="2170" y="489" width="80" height="80" as="geometry" />
        </mxCell>
        <mxCell id="0TIpxywI-svsfsxsPYix-206" value="&lt;font color=&quot;#ffffff&quot;&gt;0.58&lt;/font&gt;" style="ellipse;whiteSpace=wrap;html=1;aspect=fixed;fontFamily=Times New Roman;fontSize=25;fontColor=#000000;fillColor=#fa6800;strokeColor=#C73500;" vertex="1" parent="0TIpxywI-svsfsxsPYix-205">
          <mxGeometry width="80" height="80" as="geometry" />
        </mxCell>
        <mxCell id="0TIpxywI-svsfsxsPYix-207" value="" style="edgeStyle=orthogonalEdgeStyle;rounded=0;orthogonalLoop=1;jettySize=auto;html=1;fontFamily=Times New Roman;fontSize=25;" edge="1" parent="1" source="0TIpxywI-svsfsxsPYix-200" target="0TIpxywI-svsfsxsPYix-206">
          <mxGeometry relative="1" as="geometry" />
        </mxCell>
        <mxCell id="0TIpxywI-svsfsxsPYix-208" value="&lt;font style=&quot;&quot;&gt;&lt;i style=&quot;font-size: 25px;&quot;&gt;x&lt;/i&gt;&lt;sub style=&quot;&quot;&gt;&lt;font style=&quot;font-size: 20px;&quot;&gt;4&lt;/font&gt;&lt;/sub&gt;&lt;/font&gt;" style="text;html=1;strokeColor=none;fillColor=none;align=center;verticalAlign=middle;whiteSpace=wrap;rounded=0;fontFamily=Times New Roman;fontSize=25;" vertex="1" parent="1">
          <mxGeometry x="2415" y="599" width="30" height="30" as="geometry" />
        </mxCell>
        <mxCell id="0TIpxywI-svsfsxsPYix-209" value="&lt;font style=&quot;&quot;&gt;&lt;i style=&quot;font-size: 25px;&quot;&gt;x&lt;/i&gt;&lt;sub style=&quot;&quot;&gt;&lt;font style=&quot;font-size: 20px;&quot;&gt;3&lt;/font&gt;&lt;/sub&gt;&lt;/font&gt;" style="text;html=1;strokeColor=none;fillColor=none;align=center;verticalAlign=middle;whiteSpace=wrap;rounded=0;fontFamily=Times New Roman;fontSize=25;" vertex="1" parent="1">
          <mxGeometry x="2305" y="599" width="30" height="30" as="geometry" />
        </mxCell>
        <mxCell id="0TIpxywI-svsfsxsPYix-210" value="" style="group;fontFamily=Times New Roman;fontSize=25;fontColor=#FFFFFF;" vertex="1" connectable="0" parent="1">
          <mxGeometry x="2280" y="489" width="80" height="80" as="geometry" />
        </mxCell>
        <mxCell id="0TIpxywI-svsfsxsPYix-211" value="1.0" style="ellipse;whiteSpace=wrap;html=1;aspect=fixed;fontFamily=Times New Roman;fontSize=25;fontColor=#ffffff;fillColor=#008a00;strokeColor=#005700;" vertex="1" parent="0TIpxywI-svsfsxsPYix-210">
          <mxGeometry width="80" height="80" as="geometry" />
        </mxCell>
        <mxCell id="0TIpxywI-svsfsxsPYix-212" value="" style="edgeStyle=orthogonalEdgeStyle;rounded=0;orthogonalLoop=1;jettySize=auto;html=1;fontFamily=Times New Roman;fontSize=25;" edge="1" parent="1" source="0TIpxywI-svsfsxsPYix-209" target="0TIpxywI-svsfsxsPYix-211">
          <mxGeometry relative="1" as="geometry" />
        </mxCell>
        <mxCell id="0TIpxywI-svsfsxsPYix-213" value="" style="group;fontFamily=Times New Roman;fontSize=25;fontColor=#FFFFFF;" vertex="1" connectable="0" parent="1">
          <mxGeometry x="2390" y="489" width="80" height="80" as="geometry" />
        </mxCell>
        <mxCell id="0TIpxywI-svsfsxsPYix-214" value=".77" style="ellipse;whiteSpace=wrap;html=1;aspect=fixed;fontFamily=Times New Roman;fontSize=25;fontColor=#FFFFFF;fillColor=#fa6800;strokeColor=#C73500;" vertex="1" parent="0TIpxywI-svsfsxsPYix-213">
          <mxGeometry width="80" height="80" as="geometry" />
        </mxCell>
        <mxCell id="0TIpxywI-svsfsxsPYix-215" value="" style="edgeStyle=orthogonalEdgeStyle;rounded=0;orthogonalLoop=1;jettySize=auto;html=1;fontFamily=Times New Roman;fontSize=25;" edge="1" parent="1" source="0TIpxywI-svsfsxsPYix-208" target="0TIpxywI-svsfsxsPYix-214">
          <mxGeometry relative="1" as="geometry" />
        </mxCell>
        <mxCell id="0TIpxywI-svsfsxsPYix-216" value="" style="edgeStyle=orthogonalEdgeStyle;rounded=0;orthogonalLoop=1;jettySize=auto;html=1;fontFamily=Times New Roman;fontSize=25;fontColor=#FFFFFF;" edge="1" parent="1">
          <mxGeometry relative="1" as="geometry">
            <mxPoint x="2210" y="369" as="sourcePoint" />
            <mxPoint x="2210" y="329" as="targetPoint" />
          </mxGeometry>
        </mxCell>
        <mxCell id="0TIpxywI-svsfsxsPYix-217" value="" style="rounded=0;orthogonalLoop=1;jettySize=auto;html=1;entryX=0;entryY=1;entryDx=0;entryDy=0;fontFamily=Times New Roman;fontSize=25;fontColor=#FFFFFF;" edge="1" parent="1">
          <mxGeometry relative="1" as="geometry">
            <mxPoint x="2181.715728752538" y="317.28427124746213" as="targetPoint" />
            <mxPoint x="2126.5949266331977" y="379.121749091099" as="sourcePoint" />
          </mxGeometry>
        </mxCell>
        <mxCell id="0TIpxywI-svsfsxsPYix-218" value="" style="edgeStyle=orthogonalEdgeStyle;rounded=0;orthogonalLoop=1;jettySize=auto;html=1;fontFamily=Times New Roman;fontSize=25;fontColor=#FFFFFF;" edge="1" parent="1" source="0TIpxywI-svsfsxsPYix-214">
          <mxGeometry relative="1" as="geometry">
            <mxPoint x="2430" y="449" as="targetPoint" />
          </mxGeometry>
        </mxCell>
        <mxCell id="0TIpxywI-svsfsxsPYix-219" value="" style="edgeStyle=orthogonalEdgeStyle;rounded=0;orthogonalLoop=1;jettySize=auto;html=1;fontFamily=Times New Roman;fontSize=25;fontColor=#FFFFFF;" edge="1" parent="1" source="0TIpxywI-svsfsxsPYix-203">
          <mxGeometry relative="1" as="geometry">
            <mxPoint x="2100" y="449" as="targetPoint" />
          </mxGeometry>
        </mxCell>
        <mxCell id="0TIpxywI-svsfsxsPYix-220" value="" style="rounded=0;orthogonalLoop=1;jettySize=auto;html=1;entryX=1;entryY=1;entryDx=0;entryDy=0;fontFamily=Times New Roman;fontSize=25;fontColor=#FFFFFF;" edge="1" parent="1" source="0TIpxywI-svsfsxsPYix-206">
          <mxGeometry relative="1" as="geometry">
            <mxPoint x="2128.284271247462" y="437.28427124746213" as="targetPoint" />
          </mxGeometry>
        </mxCell>
        <mxCell id="0TIpxywI-svsfsxsPYix-221" value="" style="edgeStyle=orthogonalEdgeStyle;rounded=0;orthogonalLoop=1;jettySize=auto;html=1;fontFamily=Times New Roman;fontSize=25;fontColor=#FFFFFF;" edge="1" parent="1" source="0TIpxywI-svsfsxsPYix-206">
          <mxGeometry relative="1" as="geometry">
            <mxPoint x="2210" y="449" as="targetPoint" />
          </mxGeometry>
        </mxCell>
        <mxCell id="0TIpxywI-svsfsxsPYix-222" value="" style="rounded=0;orthogonalLoop=1;jettySize=auto;html=1;entryX=1;entryY=1;entryDx=0;entryDy=0;fontFamily=Times New Roman;fontSize=25;fontColor=#FFFFFF;" edge="1" parent="1">
          <mxGeometry relative="1" as="geometry">
            <mxPoint x="2348.284271247462" y="317.28427124746213" as="targetPoint" />
            <mxPoint x="2403.4050733668023" y="379.121749091099" as="sourcePoint" />
          </mxGeometry>
        </mxCell>
        <mxCell id="0TIpxywI-svsfsxsPYix-223" value="" style="rounded=0;orthogonalLoop=1;jettySize=auto;html=1;entryX=0;entryY=1;entryDx=0;entryDy=0;fontFamily=Times New Roman;fontSize=25;fontColor=#FFFFFF;" edge="1" parent="1" source="0TIpxywI-svsfsxsPYix-211">
          <mxGeometry relative="1" as="geometry">
            <mxPoint x="2401.715728752538" y="437.28427124746213" as="targetPoint" />
          </mxGeometry>
        </mxCell>
        <mxCell id="0TIpxywI-svsfsxsPYix-224" value="" style="edgeStyle=orthogonalEdgeStyle;rounded=0;orthogonalLoop=1;jettySize=auto;html=1;fontFamily=Times New Roman;fontSize=25;fontColor=#FFFFFF;" edge="1" parent="1">
          <mxGeometry relative="1" as="geometry">
            <mxPoint x="2320" y="369" as="sourcePoint" />
            <mxPoint x="2320" y="329" as="targetPoint" />
          </mxGeometry>
        </mxCell>
        <mxCell id="0TIpxywI-svsfsxsPYix-225" value="" style="rounded=0;orthogonalLoop=1;jettySize=auto;html=1;entryX=1;entryY=1;entryDx=0;entryDy=0;fontFamily=Times New Roman;fontSize=25;fontColor=#FFFFFF;" edge="1" parent="1" source="0TIpxywI-svsfsxsPYix-214">
          <mxGeometry relative="1" as="geometry">
            <mxPoint x="2348.284271247462" y="437.28427124746213" as="targetPoint" />
          </mxGeometry>
        </mxCell>
        <mxCell id="0TIpxywI-svsfsxsPYix-226" value="" style="rounded=0;orthogonalLoop=1;jettySize=auto;html=1;entryX=0;entryY=1;entryDx=0;entryDy=0;fontFamily=Times New Roman;fontSize=25;fontColor=#FFFFFF;" edge="1" parent="1" source="0TIpxywI-svsfsxsPYix-203">
          <mxGeometry relative="1" as="geometry">
            <mxPoint x="2291.715728752538" y="437.28427124746213" as="targetPoint" />
          </mxGeometry>
        </mxCell>
        <mxCell id="0TIpxywI-svsfsxsPYix-227" value="" style="rounded=0;orthogonalLoop=1;jettySize=auto;html=1;entryX=1;entryY=1;entryDx=0;entryDy=0;fontFamily=Times New Roman;fontSize=25;fontColor=#FFFFFF;" edge="1" parent="1" source="0TIpxywI-svsfsxsPYix-211">
          <mxGeometry relative="1" as="geometry">
            <mxPoint x="2238.284271247462" y="437.28427124746213" as="targetPoint" />
          </mxGeometry>
        </mxCell>
        <mxCell id="0TIpxywI-svsfsxsPYix-228" value="" style="edgeStyle=orthogonalEdgeStyle;rounded=0;orthogonalLoop=1;jettySize=auto;html=1;fontFamily=Times New Roman;fontSize=25;fontColor=#FFFFFF;" edge="1" parent="1">
          <mxGeometry relative="1" as="geometry">
            <mxPoint x="2210" y="249" as="sourcePoint" />
            <mxPoint x="2210" y="202" as="targetPoint" />
          </mxGeometry>
        </mxCell>
        <mxCell id="0TIpxywI-svsfsxsPYix-229" value="" style="edgeStyle=orthogonalEdgeStyle;rounded=0;orthogonalLoop=1;jettySize=auto;html=1;fontFamily=Times New Roman;fontSize=25;fontColor=#FFFFFF;" edge="1" parent="1">
          <mxGeometry relative="1" as="geometry">
            <mxPoint x="2320" y="249" as="sourcePoint" />
            <mxPoint x="2320" y="202" as="targetPoint" />
          </mxGeometry>
        </mxCell>
        <mxCell id="0TIpxywI-svsfsxsPYix-230" value="" style="group;fontFamily=Times New Roman;fontSize=25;fontColor=#FFFFFF;" vertex="1" connectable="0" parent="1">
          <mxGeometry x="2422" y="249" width="80" height="80" as="geometry" />
        </mxCell>
        <mxCell id="0TIpxywI-svsfsxsPYix-231" value="0.83" style="ellipse;whiteSpace=wrap;html=1;aspect=fixed;fontFamily=Times New Roman;fontSize=25;fontColor=#FFFFFF;fillColor=#fa6800;strokeColor=#C73500;" vertex="1" parent="0TIpxywI-svsfsxsPYix-230">
          <mxGeometry width="80" height="80" as="geometry" />
        </mxCell>
        <mxCell id="0TIpxywI-svsfsxsPYix-232" value="" style="group;fontFamily=Times New Roman;fontSize=25;fontColor=#FFFFFF;" vertex="1" connectable="0" parent="1">
          <mxGeometry x="2422" y="129" width="80" height="80" as="geometry" />
        </mxCell>
        <mxCell id="0TIpxywI-svsfsxsPYix-233" value="&lt;font style=&quot;font-size: 25px;&quot;&gt;1.0&lt;/font&gt;" style="ellipse;whiteSpace=wrap;html=1;aspect=fixed;fontFamily=Times New Roman;fontSize=25;fontColor=#ffffff;fillColor=#008a00;strokeColor=#005700;" vertex="1" parent="0TIpxywI-svsfsxsPYix-232">
          <mxGeometry y="-7" width="80" height="80" as="geometry" />
        </mxCell>
        <mxCell id="0TIpxywI-svsfsxsPYix-234" value="" style="group;fontFamily=Times New Roman;fontSize=25;fontColor=#FFFFFF;" vertex="1" connectable="0" parent="1">
          <mxGeometry x="2030" y="249" width="80" height="80" as="geometry" />
        </mxCell>
        <mxCell id="0TIpxywI-svsfsxsPYix-235" value="&lt;font color=&quot;#ffffff&quot;&gt;.61&lt;/font&gt;" style="ellipse;whiteSpace=wrap;html=1;aspect=fixed;fontFamily=Times New Roman;fontSize=25;fontColor=#000000;fillColor=#fa6800;strokeColor=#C73500;" vertex="1" parent="0TIpxywI-svsfsxsPYix-234">
          <mxGeometry width="80" height="80" as="geometry" />
        </mxCell>
        <mxCell id="0TIpxywI-svsfsxsPYix-236" value="" style="group;fontFamily=Times New Roman;fontSize=25;fontColor=#FFFFFF;fillColor=default;" vertex="1" connectable="0" parent="1">
          <mxGeometry x="2030" y="129" width="80" height="80" as="geometry" />
        </mxCell>
        <mxCell id="0TIpxywI-svsfsxsPYix-237" value="&lt;font color=&quot;#ffffff&quot; style=&quot;font-size: 25px;&quot;&gt;1.0&lt;/font&gt;" style="ellipse;whiteSpace=wrap;html=1;aspect=fixed;fontFamily=Times New Roman;fontSize=25;fillColor=#008a00;strokeColor=#005700;fontColor=#ffffff;" vertex="1" parent="0TIpxywI-svsfsxsPYix-236">
          <mxGeometry y="-7" width="80" height="80" as="geometry" />
        </mxCell>
        <mxCell id="0TIpxywI-svsfsxsPYix-238" value="" style="rounded=0;orthogonalLoop=1;jettySize=auto;html=1;entryX=1;entryY=1;entryDx=0;entryDy=0;fontFamily=Times New Roman;fontSize=25;fontColor=#FFFFFF;" edge="1" parent="1" source="0TIpxywI-svsfsxsPYix-231">
          <mxGeometry relative="1" as="geometry">
            <mxPoint x="2348.284271247462" y="190.28427124746213" as="targetPoint" />
          </mxGeometry>
        </mxCell>
        <mxCell id="0TIpxywI-svsfsxsPYix-239" value="" style="edgeStyle=orthogonalEdgeStyle;rounded=0;orthogonalLoop=1;jettySize=auto;html=1;fontFamily=Times New Roman;fontSize=25;fontColor=#FFFFFF;" edge="1" parent="1" source="0TIpxywI-svsfsxsPYix-233">
          <mxGeometry relative="1" as="geometry">
            <mxPoint x="2360" y="162" as="targetPoint" />
          </mxGeometry>
        </mxCell>
        <mxCell id="0TIpxywI-svsfsxsPYix-240" value="" style="rounded=0;orthogonalLoop=1;jettySize=auto;html=1;entryX=0;entryY=1;entryDx=0;entryDy=0;fontFamily=Times New Roman;fontSize=25;fontColor=#FFFFFF;" edge="1" parent="1" source="0TIpxywI-svsfsxsPYix-235">
          <mxGeometry relative="1" as="geometry">
            <mxPoint x="2181.715728752538" y="190.28427124746213" as="targetPoint" />
          </mxGeometry>
        </mxCell>
        <mxCell id="0TIpxywI-svsfsxsPYix-241" value="" style="rounded=0;orthogonalLoop=1;jettySize=auto;html=1;fontFamily=Times New Roman;fontSize=25;fontColor=#FFFFFF;" edge="1" parent="1">
          <mxGeometry relative="1" as="geometry">
            <mxPoint x="2226.325221649989" y="125.483056835551" as="sourcePoint" />
            <mxPoint x="2248.560560260133" y="76.4656663320684" as="targetPoint" />
          </mxGeometry>
        </mxCell>
        <mxCell id="0TIpxywI-svsfsxsPYix-242" value="" style="edgeStyle=orthogonalEdgeStyle;rounded=0;orthogonalLoop=1;jettySize=auto;html=1;fontFamily=Times New Roman;fontSize=25;fontColor=#FFFFFF;" edge="1" parent="1" source="0TIpxywI-svsfsxsPYix-237">
          <mxGeometry relative="1" as="geometry">
            <mxPoint x="2170" y="162" as="targetPoint" />
          </mxGeometry>
        </mxCell>
        <mxCell id="0TIpxywI-svsfsxsPYix-243" value="" style="edgeStyle=orthogonalEdgeStyle;rounded=0;orthogonalLoop=1;jettySize=auto;html=1;fontFamily=Times New Roman;fontSize=25;" edge="1" parent="1" source="0TIpxywI-svsfsxsPYix-244" target="0TIpxywI-svsfsxsPYix-235">
          <mxGeometry relative="1" as="geometry" />
        </mxCell>
        <mxCell id="0TIpxywI-svsfsxsPYix-244" value="&lt;font style=&quot;&quot;&gt;&lt;i style=&quot;font-size: 25px;&quot;&gt;x&lt;/i&gt;&lt;sub style=&quot;&quot;&gt;&lt;font style=&quot;font-size: 20px;&quot;&gt;2&lt;/font&gt;&lt;/sub&gt;&lt;/font&gt;" style="text;html=1;strokeColor=none;fillColor=none;align=center;verticalAlign=middle;whiteSpace=wrap;rounded=0;fontFamily=Times New Roman;fontSize=25;" vertex="1" parent="1">
          <mxGeometry x="1960" y="274" width="30" height="30" as="geometry" />
        </mxCell>
        <mxCell id="0TIpxywI-svsfsxsPYix-245" value="" style="edgeStyle=orthogonalEdgeStyle;rounded=0;orthogonalLoop=1;jettySize=auto;html=1;fontFamily=Times New Roman;fontSize=25;" edge="1" parent="1" source="0TIpxywI-svsfsxsPYix-246" target="0TIpxywI-svsfsxsPYix-237">
          <mxGeometry relative="1" as="geometry" />
        </mxCell>
        <mxCell id="0TIpxywI-svsfsxsPYix-246" value="&lt;font style=&quot;&quot;&gt;&lt;i style=&quot;font-size: 25px;&quot;&gt;x&lt;/i&gt;&lt;sub style=&quot;&quot;&gt;&lt;font style=&quot;font-size: 20px;&quot;&gt;1&lt;/font&gt;&lt;/sub&gt;&lt;/font&gt;" style="text;html=1;strokeColor=none;fillColor=none;align=center;verticalAlign=middle;whiteSpace=wrap;rounded=0;fontFamily=Times New Roman;fontSize=25;" vertex="1" parent="1">
          <mxGeometry x="1960" y="147" width="30" height="30" as="geometry" />
        </mxCell>
        <mxCell id="0TIpxywI-svsfsxsPYix-247" value="" style="edgeStyle=orthogonalEdgeStyle;rounded=0;orthogonalLoop=1;jettySize=auto;html=1;fontFamily=Times New Roman;fontSize=25;" edge="1" parent="1" source="0TIpxywI-svsfsxsPYix-248" target="0TIpxywI-svsfsxsPYix-231">
          <mxGeometry relative="1" as="geometry" />
        </mxCell>
        <mxCell id="0TIpxywI-svsfsxsPYix-248" value="&lt;font style=&quot;&quot;&gt;&lt;i style=&quot;font-size: 25px;&quot;&gt;x&lt;/i&gt;&lt;sub style=&quot;&quot;&gt;&lt;font style=&quot;font-size: 20px;&quot;&gt;2&lt;/font&gt;&lt;/sub&gt;&lt;/font&gt;" style="text;html=1;strokeColor=none;fillColor=none;align=center;verticalAlign=middle;whiteSpace=wrap;rounded=0;fontFamily=Times New Roman;fontSize=25;" vertex="1" parent="1">
          <mxGeometry x="2540" y="274" width="30" height="30" as="geometry" />
        </mxCell>
        <mxCell id="0TIpxywI-svsfsxsPYix-249" value="" style="edgeStyle=orthogonalEdgeStyle;rounded=0;orthogonalLoop=1;jettySize=auto;html=1;fontFamily=Times New Roman;fontSize=25;" edge="1" parent="1" source="0TIpxywI-svsfsxsPYix-250" target="0TIpxywI-svsfsxsPYix-233">
          <mxGeometry relative="1" as="geometry" />
        </mxCell>
        <mxCell id="0TIpxywI-svsfsxsPYix-250" value="&lt;font style=&quot;&quot;&gt;&lt;i style=&quot;font-size: 25px;&quot;&gt;x&lt;/i&gt;&lt;sub style=&quot;&quot;&gt;&lt;font style=&quot;font-size: 20px;&quot;&gt;1&lt;/font&gt;&lt;/sub&gt;&lt;/font&gt;" style="text;html=1;strokeColor=none;fillColor=none;align=center;verticalAlign=middle;whiteSpace=wrap;rounded=0;fontFamily=Times New Roman;fontSize=25;" vertex="1" parent="1">
          <mxGeometry x="2540" y="147" width="30" height="30" as="geometry" />
        </mxCell>
        <mxCell id="0TIpxywI-svsfsxsPYix-251" value="" style="rounded=0;orthogonalLoop=1;jettySize=auto;html=1;fontFamily=Times New Roman;fontSize=25;fontColor=#FFFFFF;" edge="1" parent="1">
          <mxGeometry relative="1" as="geometry">
            <mxPoint x="2303.674778349969" y="125.48305683545732" as="sourcePoint" />
            <mxPoint x="2281.4394397398673" y="76.4656663320693" as="targetPoint" />
          </mxGeometry>
        </mxCell>
        <mxCell id="0TIpxywI-svsfsxsPYix-252" value="" style="group;fontFamily=Times New Roman;fontSize=25;fontColor=#FFFFFF;" vertex="1" connectable="0" parent="1">
          <mxGeometry x="2225" width="80" height="80" as="geometry" />
        </mxCell>
        <mxCell id="0TIpxywI-svsfsxsPYix-253" value="0.49" style="ellipse;whiteSpace=wrap;html=1;aspect=fixed;fontFamily=Times New Roman;fontSize=25;fontColor=#FFFFFF;fillColor=#fa6800;strokeColor=#C73500;" vertex="1" parent="0TIpxywI-svsfsxsPYix-252">
          <mxGeometry width="80" height="80" as="geometry" />
        </mxCell>
        <mxCell id="0TIpxywI-svsfsxsPYix-254" value="" style="group;fontFamily=Times New Roman;fontSize=25;fontColor=#FFFFFF;" vertex="1" connectable="0" parent="1">
          <mxGeometry x="2280" y="122" width="80" height="80" as="geometry" />
        </mxCell>
        <mxCell id="0TIpxywI-svsfsxsPYix-255" value="0.64" style="ellipse;whiteSpace=wrap;html=1;aspect=fixed;fontFamily=Times New Roman;fontSize=25;fontColor=#FFFFFF;fillColor=#fa6800;strokeColor=#C73500;" vertex="1" parent="0TIpxywI-svsfsxsPYix-254">
          <mxGeometry width="80" height="80" as="geometry" />
        </mxCell>
        <mxCell id="0TIpxywI-svsfsxsPYix-256" value="" style="group;fontFamily=Times New Roman;fontSize=25;fontColor=#FFFFFF;" vertex="1" connectable="0" parent="1">
          <mxGeometry x="2170" y="122" width="80" height="80" as="geometry" />
        </mxCell>
        <mxCell id="0TIpxywI-svsfsxsPYix-257" value="0.35" style="ellipse;whiteSpace=wrap;html=1;aspect=fixed;fontFamily=Times New Roman;fontSize=25;fontColor=#FFFFFF;fillColor=#fa6800;strokeColor=#C73500;" vertex="1" parent="0TIpxywI-svsfsxsPYix-256">
          <mxGeometry width="80" height="80" as="geometry" />
        </mxCell>
        <mxCell id="0TIpxywI-svsfsxsPYix-258" value="" style="group;fontFamily=Times New Roman;fontSize=25;fontColor=#FFFFFF;" vertex="1" connectable="0" parent="1">
          <mxGeometry x="2280" y="249" width="80" height="80" as="geometry" />
        </mxCell>
        <mxCell id="0TIpxywI-svsfsxsPYix-259" value="0.77" style="ellipse;whiteSpace=wrap;html=1;aspect=fixed;fontFamily=Times New Roman;fontSize=25;fontColor=#FFFFFF;fillColor=#fa6800;strokeColor=#C73500;" vertex="1" parent="0TIpxywI-svsfsxsPYix-258">
          <mxGeometry width="80" height="80" as="geometry" />
        </mxCell>
        <mxCell id="0TIpxywI-svsfsxsPYix-260" value="" style="group;fontFamily=Times New Roman;fontSize=25;fontColor=#FFFFFF;" vertex="1" connectable="0" parent="1">
          <mxGeometry x="2170" y="249" width="80" height="80" as="geometry" />
        </mxCell>
        <mxCell id="0TIpxywI-svsfsxsPYix-261" value="0.58" style="ellipse;whiteSpace=wrap;html=1;aspect=fixed;fontFamily=Times New Roman;fontSize=25;fontColor=#FFFFFF;fillColor=#fa6800;strokeColor=#C73500;" vertex="1" parent="0TIpxywI-svsfsxsPYix-260">
          <mxGeometry width="80" height="80" as="geometry" />
        </mxCell>
        <mxCell id="0TIpxywI-svsfsxsPYix-262" value="" style="group;fontFamily=Times New Roman;fontSize=25;fontColor=#FFFFFF;" vertex="1" connectable="0" parent="1">
          <mxGeometry x="2390" y="370" width="80" height="80" as="geometry" />
        </mxCell>
        <mxCell id="0TIpxywI-svsfsxsPYix-263" value="0.77" style="ellipse;whiteSpace=wrap;html=1;aspect=fixed;fontFamily=Times New Roman;fontSize=25;fontColor=#FFFFFF;fillColor=#fa6800;strokeColor=#C73500;" vertex="1" parent="0TIpxywI-svsfsxsPYix-262">
          <mxGeometry width="80" height="80" as="geometry" />
        </mxCell>
        <mxCell id="0TIpxywI-svsfsxsPYix-264" value="" style="group;fontFamily=Times New Roman;fontSize=25;fontColor=#FFFFFF;" vertex="1" connectable="0" parent="1">
          <mxGeometry x="2280" y="369" width="80" height="80" as="geometry" />
        </mxCell>
        <mxCell id="0TIpxywI-svsfsxsPYix-265" value="0.77" style="ellipse;whiteSpace=wrap;html=1;aspect=fixed;fontFamily=Times New Roman;fontSize=25;fontColor=#FFFFFF;fillColor=#fa6800;strokeColor=#C73500;" vertex="1" parent="0TIpxywI-svsfsxsPYix-264">
          <mxGeometry width="80" height="80" as="geometry" />
        </mxCell>
        <mxCell id="0TIpxywI-svsfsxsPYix-266" value="" style="group;fontFamily=Times New Roman;fontSize=25;fontColor=#FFFFFF;" vertex="1" connectable="0" parent="1">
          <mxGeometry x="2170" y="369" width="80" height="80" as="geometry" />
        </mxCell>
        <mxCell id="0TIpxywI-svsfsxsPYix-267" value="0.58" style="ellipse;whiteSpace=wrap;html=1;aspect=fixed;fontFamily=Times New Roman;fontSize=25;fontColor=#FFFFFF;fillColor=#fa6800;strokeColor=#C73500;" vertex="1" parent="0TIpxywI-svsfsxsPYix-266">
          <mxGeometry width="80" height="80" as="geometry" />
        </mxCell>
        <mxCell id="0TIpxywI-svsfsxsPYix-268" value="" style="group;fontFamily=Times New Roman;fontSize=25;fontColor=#FFFFFF;" vertex="1" connectable="0" parent="1">
          <mxGeometry x="2060" y="369" width="80" height="80" as="geometry" />
        </mxCell>
        <mxCell id="0TIpxywI-svsfsxsPYix-269" value="0.58" style="ellipse;whiteSpace=wrap;html=1;aspect=fixed;fontFamily=Times New Roman;fontSize=25;fontColor=#FFFFFF;fillColor=#fa6800;strokeColor=#C73500;" vertex="1" parent="0TIpxywI-svsfsxsPYix-268">
          <mxGeometry width="80" height="80" as="geometry" />
        </mxCell>
        <mxCell id="0TIpxywI-svsfsxsPYix-270" value="0.5" style="text;html=1;strokeColor=none;fillColor=none;align=center;verticalAlign=middle;whiteSpace=wrap;rounded=0;" vertex="1" parent="1">
          <mxGeometry x="2115" y="320" width="60" height="30" as="geometry" />
        </mxCell>
        <mxCell id="0TIpxywI-svsfsxsPYix-271" value="0.5" style="text;html=1;strokeColor=none;fillColor=none;align=center;verticalAlign=middle;whiteSpace=wrap;rounded=0;" vertex="1" parent="1">
          <mxGeometry x="2165" y="339" width="60" height="30" as="geometry" />
        </mxCell>
        <mxCell id="0TIpxywI-svsfsxsPYix-272" value="0.5" style="text;html=1;strokeColor=none;fillColor=none;align=center;verticalAlign=middle;whiteSpace=wrap;rounded=0;" vertex="1" parent="1">
          <mxGeometry x="2305" y="339" width="60" height="30" as="geometry" />
        </mxCell>
        <mxCell id="0TIpxywI-svsfsxsPYix-273" value="0.5" style="text;html=1;strokeColor=none;fillColor=none;align=center;verticalAlign=middle;whiteSpace=wrap;rounded=0;" vertex="1" parent="1">
          <mxGeometry x="2355" y="320" width="60" height="30" as="geometry" />
        </mxCell>
        <mxCell id="0TIpxywI-svsfsxsPYix-274" value="0.5" style="text;html=1;strokeColor=none;fillColor=none;align=center;verticalAlign=middle;whiteSpace=wrap;rounded=0;" vertex="1" parent="1">
          <mxGeometry x="2280" y="80" width="60" height="30" as="geometry" />
        </mxCell>
        <mxCell id="0TIpxywI-svsfsxsPYix-275" value="0.5" style="text;html=1;strokeColor=none;fillColor=none;align=center;verticalAlign=middle;whiteSpace=wrap;rounded=0;" vertex="1" parent="1">
          <mxGeometry x="2190" y="80" width="60" height="30" as="geometry" />
        </mxCell>
        <mxCell id="0TIpxywI-svsfsxsPYix-276" value="&lt;b&gt;&lt;font style=&quot;font-size: 24px;&quot;&gt;A&lt;/font&gt;&lt;/b&gt;" style="text;html=1;align=center;verticalAlign=middle;whiteSpace=wrap;rounded=0;" vertex="1" parent="1">
          <mxGeometry width="60" height="30" as="geometry" />
        </mxCell>
        <mxCell id="0TIpxywI-svsfsxsPYix-279" value="&lt;b&gt;&lt;font style=&quot;font-size: 24px;&quot;&gt;D&lt;/font&gt;&lt;/b&gt;" style="text;html=1;align=center;verticalAlign=middle;whiteSpace=wrap;rounded=0;" vertex="1" parent="1">
          <mxGeometry x="1950" width="60" height="30" as="geometry" />
        </mxCell>
      </root>
    </mxGraphModel>
  </diagram>
</mxfile>
